<?xml version="1.0" encoding="UTF-8" standalone="no"?>
<!-- Created with Inkscape (http://www.inkscape.org/) -->

<svg
   version="1.1"
   id="svg1"
   width="802.58984"
   height="97.320312"
   viewBox="0 0 802.58984 97.320312"
   xml:space="preserve"
   xmlns="http://www.w3.org/2000/svg"
   xmlns:svg="http://www.w3.org/2000/svg"><defs
     id="defs1"><clipPath
       clipPathUnits="userSpaceOnUse"
       id="clipPath3-3"><path
         d="M -33.66,-164 H 487.14001 V 45.119999 H -33.66 Z"
         transform="translate(2e-6)"
         clip-rule="evenodd"
         id="path3-5" /></clipPath><clipPath
       clipPathUnits="userSpaceOnUse"
       id="clipPath5-7"><path
         d="M -40.240002,-165.52 H 37.040001 V 43.599998 h -77.280003 z"
         transform="translate(-3.0000001e-6)"
         clip-rule="evenodd"
         id="path5-6" /></clipPath><clipPath
       clipPathUnits="userSpaceOnUse"
       id="clipPath7-6"><path
         d="M -40.240002,-165.52 H 37.040001 V 43.599998 h -77.280003 z"
         transform="translate(-3.0000001e-6)"
         clip-rule="evenodd"
         id="path7-5" /></clipPath><clipPath
       clipPathUnits="userSpaceOnUse"
       id="clipPath9-82"><path
         d="M -8.35,-164 H 76.129997 V 45.119999 H -8.35 Z"
         transform="translate(-3e-6)"
         clip-rule="evenodd"
         id="path9-5" /></clipPath></defs><g
     id="g1"
     transform="translate(-117,-141)"><g
       id="g170"><path
         id="path2-4"
         clip-path="url(#clipPath3-3)"
         style="fill:#000000;fill-opacity:1;fill-rule:nonzero;stroke:none"
         d="m 109.41945,-95.8 c -7.17,0.01 -13.789144,1.239692 -19.869138,3.679687 -6.079997,2.450005 -11.370628,5.870003 -15.890625,10.25 -4.51,4.390002 -8.009998,9.539452 -10.5,15.439454 -2.490002,5.91 -3.740234,12.320468 -3.740234,19.230468 0,6.920002 1.270779,13.340233 3.800781,19.240235 2.540001,5.91 6.060311,11.080001 10.570313,15.5 4.519997,4.439997 9.80867,7.8803132 15.888672,10.3203122 6.080002,2.4400006 12.660231,3.6601563 19.740231,3.6601563 7.09,0 13.67024,-1.2201557 19.74024,-3.6601563 6.08,-2.44 11.37087,-5.8803156 15.88086,-10.3203122 4.52001,-4.419999 8.04031,-9.59 10.57031,-15.5 2.53999,-5.900002 3.79883,-12.320233 3.79883,-19.240235 0,-6.91 -1.24046,-13.320468 -3.73047,-19.230468 -2.48999,-5.900002 -5.98977,-11.049452 -10.50977,-15.439454 -4.51,-4.379997 -9.7989,-7.799995 -15.8789,-10.25 C 123.21056,-94.560308 116.58945,-95.79 109.41945,-95.8 Z M -32.27,-94.280469 -4.6875e-4,7.8125e-4 H 22.780781 L 55.050312,-94.280469 H 33.540547 l -22.150391,68.982422 -22.15039,-68.982422 z m 205.67969,0 V 7.8125e-4 h 59.48047 V -17.079297 h -39.85938 v -77.201172 z m 65.58008,0 V -34.55 c 0,6.929998 1.67,13.11078 5,18.550781 3.34,5.45 7.91045,9.7296096 13.73046,12.8496096 5.82001,3.1200003 12.44916,4.6699219 19.86915,4.6699219 7.42998,0 14.05111,-1.5499216 19.87109,-4.6699219 5.82001,-3.12 10.40046,-7.3996096 13.73047,-12.8496096 3.34,-5.440001 5,-11.620783 5,-18.550781 v -59.730469 h -19.6211 v 58.470703 c 0,3.720001 -0.81897,7.080313 -2.45898,10.070313 -1.63999,3 -3.88092,5.33953 -6.71094,7.019531 -2.82,1.689998 -6.09057,2.529531 -9.81054,2.519531 -3.62,0.01 -6.87025,-0.829533 -9.74024,-2.519531 -2.87,-1.680001 -5.12952,-4.019531 -6.76953,-7.019531 -1.63999,-2.99 -2.46875,-6.350312 -2.46875,-10.070313 v -58.470703 z m 92.66015,0 V 7.8125e-4 h 19.61914 V -57.282422 l 5.23438,7.074219 6.70312,-5.212891 -21.49218,-27.519531 c -0.40877,-0.52249 -0.31602,-1.277507 0.20703,-1.685547 0.20827,-0.16251 0.46434,-0.251906 0.72851,-0.253906 0.0522,0 0.10445,0.0028 0.15625,0.0098 0.31552,0.03865 0.60282,0.200912 0.79883,0.451172 l 21.49414,27.525391 6.2793,-4.884766 -24.66797,-32.501953 z m 57.58008,0 v 56.019531 l -10.69727,-14.095703 2.09571,15.398438 c 0.82808,-0.36146 1.73117,-0.48587 2.61133,-0.38086 1.29634,0.154661 2.53707,0.794881 3.39648,1.869141 0.0114,0.0141 0.0225,0.02837 0.0332,0.04297 1.31992,1.81483 1.31882,4.197093 0.17188,5.939453 -0.038,0.06127 -0.0859,0.115514 -0.0918,0.134766 v 0.002 0.002 0.002 l 0.002,0.002 h 0.002 l 15.89062,20.2851564 c 0.40832,0.52115 0.31742,1.2745137 -0.20312,1.6835937 -0.52147,0.40964 -1.27633,0.318675 -1.68555,-0.203125 L 384.91359,-27.8 c -0.009,-0.0053 -0.0142,-0.0093 -0.0176,-0.01172 l -0.002,-0.002 h -0.002 -0.002 -0.002 c -0.0131,0.01405 -0.0675,0.08531 -0.52148,0.240234 -2.02101,0.715672 -4.36797,0.216696 -5.71875,-1.640625 -1.40916,-1.937598 -1.41503,-4.632123 0.14453,-6.402343 l -16.4082,-6.646485 31.27539,42.26367225 h 15.18945 V -94.280469 Z m 29.38086,0 v 15.72461 c -0.31568,1.217903 -0.20769,2.757129 0.32422,3.753906 0.37076,0.69483 0.45108,1.026691 0.45508,1.863281 0.003,0.65515 0.0845,1.120714 0.22656,1.308594 0.12132,0.16043 0.2207,0.470123 0.2207,0.689453 0,0.65265 0.47774,0.983896 0.96289,0.666016 0.22951,-0.15038 0.38867,-0.395377 0.38867,-0.597657 0,-0.18827 0.10064,-0.380134 0.22461,-0.427734 0.12397,-0.04756 0.22657,-0.250812 0.22657,-0.451172 0,-0.20036 0.10064,-0.403572 0.22461,-0.451172 0.12397,-0.04758 0.22656,-0.250812 0.22656,-0.451172 0,-0.20036 0.10064,-0.401618 0.22461,-0.449218 0.12397,-0.04757 0.22461,-0.223195 0.22461,-0.390625 0,-0.17418 0.3865,-0.682367 0.90234,-1.185547 0.49587,-0.4837 0.90234,-0.987161 0.90234,-1.119141 0,-0.32494 1.90236,-2.208984 2.23047,-2.208984 0.14391,0 0.42812,-0.200883 0.63086,-0.445313 0.33997,-0.40989 0.4464,-0.445172 1.375,-0.451172 0.7017,-0.0044 1.04316,-0.0698 1.12696,-0.216797 0.0661,-0.11603 0.28947,-0.235071 0.49609,-0.263671 0.25283,-0.03502 0.39203,-0.160746 0.42383,-0.384766 0.0936,-0.65857 1.26343,-1.613372 1.43359,-1.169922 0.0654,0.17029 0.34071,0.226563 1.12695,0.226563 0.78625,0 1.06166,0.0543 1.12696,0.224609 0.0708,0.18449 0.4427,0.226562 2.04883,0.226562 1.60612,0 1.98008,0.04019 2.05078,0.22461 0.065,0.1694 0.33669,0.224609 1.09375,0.224609 0.92346,0 1.04365,0.03804 1.43945,0.451172 0.30317,0.31642 0.57363,0.451172 0.91016,0.451172 0.26367,0 0.56508,0.100639 0.66797,0.224609 0.10287,0.12396 0.40233,0.226563 0.66601,0.226563 0.33651,0 0.607,0.134732 0.91016,0.451172 0.38784,0.40478 0.52692,0.449218 1.35351,0.449218 0.82298,0 0.96433,0.04734 1.34375,0.44336 0.28387,0.29629 0.60372,0.457881 0.96289,0.488281 0.42907,0.03629 0.55395,0.120216 0.62305,0.416016 0.0537,0.22972 0.22484,0.403631 0.45117,0.457031 0.22622,0.05341 0.39727,0.225458 0.45117,0.455078 0.0532,0.22721 0.21119,0.389369 0.40821,0.417969 0.17656,0.02563 0.4012,0.142719 0.5,0.261719 0.0988,0.11897 0.28488,0.216796 0.41406,0.216796 0.61672,10e-7 1.2154,1.102999 0.70508,1.298829 -0.12396,0.04757 -0.22461,0.173016 -0.22461,0.279296 0,0.106281 0.10065,0.231697 0.22461,0.279297 0.12397,0.04757 0.22656,0.226005 0.22656,0.396485 0,0.17047 -0.10259,0.348884 -0.22656,0.396484 -0.29964,0.115 -0.28346,0.350743 0.0391,0.601563 0.25044,0.19477 0.25044,0.211228 0,0.361328 -0.33934,0.20339 -0.3695,1.27358 -0.0391,1.40039 0.12397,0.04756 0.22656,0.253322 0.22656,0.457032 0,0.29237 0.0859,0.380468 0.41211,0.417968 0.3102,0.0357 0.42574,0.139865 0.46484,0.421875 0.0286,0.2066 0.14764,0.429994 0.26368,0.496094 0.28035,0.15972 0.27098,0.802879 -0.0137,0.912109 -0.14869,0.05709 -0.22656,0.291577 -0.22656,0.691407 0,0.43829 0.0635,0.605468 0.22656,0.605468 0.16749,0 0.22461,-0.1755 0.22461,-0.6875 0,-0.699179 0.31451,-0.902493 0.42969,-0.277343 0.0292,0.15844 0.15767,0.408737 0.28711,0.554687 0.21492,0.24224 0.21056,0.284591 -0.0527,0.488281 -0.2718,0.2103 -0.27326,0.23229 -0.0254,0.38086 0.20735,0.12428 0.26368,0.363835 0.26368,1.134765 0,0.910561 0.0335,1.008615 0.48828,1.427735 0.44038,0.40582 0.46174,0.464329 0.22461,0.599609 -0.32176,0.18354 -0.34676,0.822586 -0.0371,0.941406 0.28437,0.10912 0.31773,1.2919 0.0371,1.3125 -0.1033,0.0076 -0.39074,0.02411 -0.63867,0.03711 -0.41849,0.02205 -0.4532,0.06925 -0.4961,0.662109 -0.0383,0.52877 -0.10023,0.638672 -0.35547,0.638672 -0.39263,0 -1.01943,0.589688 -1.02343,0.960938 -10e-4,0.15617 -0.121,0.375861 -0.26563,0.488281 -0.25044,0.19465 -0.25044,0.213543 0,0.408203 0.14463,0.11242 0.26367,0.344848 0.26367,0.517578 0,0.17272 0.10684,0.375619 0.23828,0.449219 0.39074,0.21866 0.21055,0.848044 -0.25781,0.902344 -0.30366,0.03523 -0.41312,-0.03178 -0.48242,-0.296875 -0.0735,-0.28111 -0.12549,-0.308268 -0.2832,-0.148438 -0.15708,0.15922 -0.13751,0.236892 0.10742,0.419922 0.28378,0.21202 0.28733,0.235712 0.0391,0.419922 -0.341,0.25298 -0.35888,1.21962 -0.0254,1.40625 0.13672,0.07653 0.2168,0.275744 0.1875,0.464844 -0.0698,0.45111 -0.33994,0.415205 -0.39844,-0.05273 -0.0262,-0.20918 -0.1452,-0.378906 -0.26367,-0.378906 -0.31878,0 -0.29179,1.143439 0.0312,1.324219 0.1354,0.07587 0.20038,0.215093 0.14258,0.308593 -0.15058,0.24359 -0.38867,0.20849 -0.38867,-0.05664 0,-0.3121 -0.2448,-0.280598 -0.60157,0.07617 -0.23912,0.23918 -0.29882,0.50019 -0.29882,1.28125 0,0.73375 -0.058,1.003759 -0.22657,1.068359 -0.29034,0.1114 -0.32696,1.464341 -0.0371,1.369141 0.1033,-0.03392 0.20818,-0.241991 0.23438,-0.462891 0.0586,-0.49515 0.47851,-0.54487 0.47851,-0.05664 0,0.199131 0.18891,0.502184 0.44532,0.714844 0.44024,0.36514 0.59632,0.744141 0.30664,0.744141 -0.19488,0 -0.75196,-0.557073 -0.75196,-0.751953 0,-0.24046 -0.3242,-0.173049 -0.54687,0.113281 -0.19476,0.25045 -0.21122,0.25045 -0.36133,0 -0.0867,-0.14462 -0.32716,-0.263672 -0.53515,-0.263672 -0.5801,0 -0.46132,0.8071 0.1289,0.875 0.52566,0.06049 0.51982,0.177706 -0.0312,0.634766 -0.66861,0.55484 -0.67268,1.646484 -0.006,1.646484 0.47185,0 0.6139,0.247854 0.22656,0.396484 -0.22744,0.08729 -0.32224,0.506954 -0.11328,0.501954 0.30785,-0.0071 0.81772,-0.747944 0.57813,-0.839844 -0.38563,-0.14798 -0.27795,-0.48541 0.17187,-0.53711 0.47528,-0.05468 0.73165,-0.875 0.27344,-0.875 -0.16127,10e-7 -0.23437,-0.140198 -0.23437,-0.449218 0,-0.30052 0.0743,-0.451172 0.22461,-0.451172 0.15019,0 0.22656,0.150652 0.22656,0.451172 0,0.43408 0.0247,0.449218 0.67578,0.449218 0.65108,10e-7 0.67578,0.01708 0.67578,0.451172 0,0.51112 -0.0901,0.551991 -0.46484,0.212891 -0.36437,-0.32975 -0.88672,0.181897 -0.88672,0.867187 0,0.68861 -0.50821,1.173829 -1.22852,1.173829 -0.70186,0 -0.75024,0.258161 -0.125,0.675781 0.45712,0.30533 0.60546,0.681522 0.26367,0.669922 -0.1033,-0.0035 -0.35391,-0.206742 -0.55664,-0.451172 -0.56351,-0.67941 -1.05859,-0.6084 -1.05859,0.15039 0,0.35231 -0.0857,0.641591 -0.21094,0.712891 -0.11601,0.06609 -0.23507,0.289484 -0.26367,0.496094 -0.0391,0.282 -0.15463,0.388228 -0.46484,0.423828 -0.44168,0.05083 -0.56076,0.389973 -0.1875,0.533203 0.45027,0.17279 0.29429,1.512892 -0.22657,1.951172 -0.50538,0.42524 -0.56185,0.622699 -0.21484,0.755859 0.33493,0.12853 0.2132,0.753113 -0.16016,0.820313 -0.39195,0.07056 -0.97656,0.614403 -0.97656,0.908203 0,0.49008 -1.20602,0.995691 -1.67383,1.369141 -0.42842,0.342011 -0.58527,0.632476 -0.57617,0.878906 1.9e-4,0.0052 -3.4e-4,0.01043 0,0.01563 v 1.359375 31.42773425 h 19.61914 V -37.01875 c 0.007,-0.02423 0.007,-0.05289 0,-0.08203 v -14.498047 c -0.53822,0.09792 -1.10888,0.132701 -1.60547,0.291015 0.0267,-0.211413 -0.0416,-0.393245 -0.21289,-0.458984 -0.93438,-0.35856 0.55066,-1.832184 1.78516,-1.771484 0.82348,0.04051 0.91885,0.0098 1.39648,-0.453125 0.28194,-0.27327 0.62849,-0.497147 0.76953,-0.498047 0.14823,-10e-4 0.27584,-0.140958 0.30274,-0.330078 0.0256,-0.17994 0.14467,-0.40706 0.26367,-0.50586 0.15637,-0.12975 0.2168,-0.523632 0.2168,-1.419922 0,-0.896309 -0.0604,-1.290171 -0.2168,-1.419921 -0.119,-0.09877 -0.23797,-0.327873 -0.26367,-0.507813 -0.0418,-0.29342 -0.14102,-0.32825 -0.97266,-0.34375 -0.92549,-0.01731 -1.70312,-0.379049 -1.70312,-0.792969 0,-0.09139 -0.15658,-0.166015 -0.34766,-0.166015 -0.44896,0 -1.0039,0.744243 -1.0039,1.345703 0,0.25127 -0.0677,0.466162 -0.1504,0.476562 -0.0826,0.0104 -0.21446,0.02671 -0.29296,0.03711 -0.0785,0.01033 -0.22874,0.103721 -0.33204,0.207031 -0.33228,0.33227 -0.60228,0.220607 -0.55078,-0.226563 0.0373,-0.324549 0.13638,-0.423637 0.46094,-0.460937 0.36512,-0.04202 0.41406,-0.109788 0.41406,-0.585938 0,-0.46071 0.12957,-0.666038 0.90039,-1.417968 0.49586,-0.4837 0.90235,-1.000388 0.90235,-1.148438 0,-0.14806 0.20088,-0.435932 0.44531,-0.638672 0.24443,-0.20273 0.44522,-0.517378 0.44922,-0.699218 0.004,-0.18185 0.10274,-0.385072 0.21875,-0.451172 0.11602,-0.06609 0.23312,-0.287541 0.26172,-0.494141 0.0372,-0.26832 0.15941,-0.390634 0.42773,-0.427734 0.20662,-0.02861 0.43,-0.147652 0.4961,-0.263672 0.0801,-0.14053 0.39366,-0.210938 0.93945,-0.210938 0.824,0 1.14898,-0.292362 0.57226,-0.513672 -0.22763,-0.08734 -2.9e-4,-0.243234 0,-0.365234 0.003,-1.08147 0.0106,-2.162681 0.0156,-3.244141 0.002,-0.39685 0.007,-0.794549 0.006,-1.191406 -0.002,-0.882117 -0.0508,-1.116315 -0.19523,-1.885418 -0.0456,-0.242845 -0.41812,-0.744092 -0.57235,-0.936847 -0.37286,-0.46599 0.0771,-1.192393 0.0645,-1.789063 -0.0163,-0.76985 -0.0748,-1.539884 -0.17968,-2.302734 -0.002,-0.01224 -0.004,-0.02485 -0.006,-0.03711 h 20.83789 v -17.080078 z m 28.17383,0.865235 c 0.0528,-0.0019 0.0997,0.01966 0.14453,0.06445 0.11946,0.11947 0.0832,0.228638 -0.12891,0.392578 -0.27524,0.21276 -0.27677,0.234472 -0.0293,0.382812 0.32228,0.19315 0.34298,0.44336 0.0371,0.44336 -0.12397,0 -0.22461,0.100639 -0.22461,0.224609 0,0.32703 0.60803,0.27297 1.04882,-0.09375 0.3456,-0.28753 0.35433,-0.32375 0.11329,-0.5 -0.26145,-0.19117 -0.35815,-0.534297 -0.14844,-0.529297 0.38542,0.0089 0.82698,0.762201 0.56054,0.957031 -0.25198,0.18425 -0.22114,0.247484 0.42969,0.871094 0.3856,0.36947 0.70117,0.786261 0.70117,0.925781 0,0.139521 0.316,0.556815 0.70313,0.927735 0.67415,0.64596 0.69243,0.682422 0.41406,0.888672 -0.28666,0.21248 -0.28676,0.219826 0.01,0.441406 0.22822,0.17053 0.25901,0.266351 0.12695,0.400391 -0.13277,0.13475 -0.21471,0.102704 -0.3418,-0.134766 -0.10141,-0.18945 -0.25561,-0.275956 -0.39453,-0.222656 -0.14133,0.05424 -0.42846,-0.119922 -0.75586,-0.457032 -0.29051,-0.299129 -0.62982,-0.542968 -0.7539,-0.542968 -0.34327,0 -1.22341,-0.929146 -1.28321,-1.353516 -0.0623,-0.44187 -0.67571,-0.618248 -0.82226,-0.236328 -0.12332,0.32133 -0.40776,0.296457 -0.73438,-0.06445 -0.2616,-0.2889 -0.26066,-0.311776 -0.002,-0.597656 0.28455,-0.31442 0.0906,-0.529299 -0.38086,-0.423829 -0.11073,0.02477 -0.22611,-0.07218 -0.25781,-0.216796 -0.0498,-0.22785 0.0646,-0.263672 0.85547,-0.263672 0.8628,0 1.20565,-0.197655 0.6875,-0.396485 -0.30721,-0.1179 -0.28347,-0.296622 0.0898,-0.669922 0.14302,-0.143018 0.248,-0.213703 0.33594,-0.216796 z m 7.33203,0.673828 c 0.12868,0.02865 0.25858,0.05702 0.38867,0.08398 0.27196,0.05637 0.52769,0.148279 0.76953,0.269531 -0.46074,-0.121286 -0.85882,-0.111713 -1.04297,0.08594 -0.21762,0.2336 -0.40108,0.289656 -0.73632,0.222656 -0.33024,-0.06605 -0.47182,-0.02596 -0.54102,0.154297 -0.1624,0.42323 -0.53748,0.291548 -0.48438,-0.169922 0.0448,-0.38975 0.099,-0.417481 0.94922,-0.488281 0.42313,-0.03526 0.6538,-0.09197 0.69727,-0.158203 z m -3.36133,1.064453 c 0.0947,-0.01338 0.22176,0.06566 0.28125,0.220703 0.0476,0.12396 0.24579,0.226562 0.43945,0.226562 0.19366,10e-7 0.40656,0.09492 0.47266,0.210938 0.0661,0.11601 0.28948,0.233119 0.49609,0.261719 0.21061,0.02916 0.375,0.150973 0.375,0.277343 0,0.31106 -0.65308,0.384288 -0.76757,0.08594 -0.0498,-0.12977 -0.23697,-0.236281 -0.41407,-0.238281 -0.33371,-0.0027 -0.99804,-0.590443 -0.99804,-0.882813 0,-0.100027 0.0505,-0.152957 0.11523,-0.162109 z m -208.75,0.302734 h 13.78906 v 13.789063 h -13.78906 z m 57.43945,0 h 13.79102 v 13.789063 h -13.79102 z m 6.95899,2.542969 c -0.625,0 -1.1836,0.08984 -1.67188,0.265625 -0.48047,0.16797 -0.85937,0.42969 -1.14062,0.78125 -0.27343,0.35547 -0.40625,0.820315 -0.40625,1.390625 0,0.52344 0.11718,0.94922 0.35937,1.28125 0.23828,0.32422 0.57813,0.589845 1.01563,0.796875 0.44532,0.21094 0.96875,0.402345 1.5625,0.578125 0.51954,0.13672 0.92187,0.265625 1.20312,0.390625 0.28906,0.125 0.48828,0.265625 0.59375,0.421875 0.11328,0.14844 0.17188,0.33594 0.17188,0.5625 0,0.24219 -0.0703,0.4375 -0.20313,0.59375 -0.125,0.14844 -0.30858,0.257825 -0.54687,0.328125 -0.23046,0.07417 -0.4961,0.109375 -0.79688,0.109375 -0.32422,0 -0.60937,-0.0391 -0.85937,-0.125 -0.25,-0.08203 -0.44921,-0.21875 -0.59375,-0.40625 -0.14847,-0.19531 -0.22638,-0.460935 -0.23438,-0.796875 h -1.85937 c 0,0.66797 0.14843,1.203125 0.45312,1.609375 0.3125,0.40625 0.73438,0.703125 1.26563,0.890625 0.53125,0.18755 1.125,0.28125 1.78125,0.28125 0.66407,0 1.25782,-0.08984 1.78125,-0.265625 0.51954,-0.17578 0.92968,-0.453125 1.23437,-0.828125 0.30078,-0.38281 0.45313,-0.88281 0.45313,-1.5 0,-0.55078 -0.10546,-0.992185 -0.3125,-1.328125 -0.21093,-0.34375 -0.52735,-0.617185 -0.95313,-0.828125 -0.41797,-0.21875 -0.96094,-0.42578 -1.625,-0.625 -0.55469,-0.15625 -0.97655,-0.296875 -1.26562,-0.421875 -0.29296,-0.125 -0.49218,-0.253905 -0.59375,-0.390625 -0.10545,-0.13281 -0.15625,-0.285155 -0.15625,-0.453125 0,-0.30078 0.125,-0.523435 0.375,-0.671875 0.25782,-0.14455 0.58204,-0.21875 0.96875,-0.21875 0.39454,0 0.73437,0.09375 1.01562,0.28125 0.28125,0.17969 0.41425,0.453125 0.40625,0.828125 h 1.875 c 0,-0.57031 -0.15233,-1.046875 -0.45312,-1.421875 -0.30468,-0.375 -0.70313,-0.648435 -1.20313,-0.828125 -0.49219,-0.18755 -1.03905,-0.28125 -1.64062,-0.28125 z m -61.06641,0.167969 v 8.734375 h 1.70313 v -5.921875 l 4.01562,5.921875 h 1.79688 v -8.734375 h -1.71875 v 5.890625 l -4.01563,-5.890625 z m 203.14453,0.599609 c 0.0936,0.0024 0.25611,0.128244 0.49024,0.375 0.23179,0.2443 0.30989,0.432291 0.21679,0.525391 -0.1598,0.15981 -0.80273,-0.428625 -0.80273,-0.734375 0,-0.11217 0.0316,-0.167643 0.0957,-0.166016 z m -336.92187,2.427734 c 1.02254,0.03316 1.70305,1.934757 2.80859,2.3125 0.88963,0.303968 1.87054,0.06774 2.82031,0.05859 -0.26273,0.444539 -0.75974,0.984924 -1.28125,1.31836 -0.30428,0.19454 -0.66142,0.493882 -0.79296,0.664062 -0.19967,0.25837 -0.27321,0.190114 -0.44532,-0.410156 -0.0738,-0.25722 -0.13462,-0.404167 -0.17578,-0.433594 l -0.002,-0.002 v -0.002 h -0.002 -0.002 l -0.002,-0.002 h -0.002 -0.002 -0.002 -0.002 -0.002 l -0.002,0.002 h -0.002 l -0.002,0.002 -0.002,0.002 c -0.0138,0.01611 -0.025,0.05917 -0.0293,0.126953 -0.0377,0.60054 -0.4441,1.239801 -1.12695,1.775391 l -0.59961,0.470703 0.13281,-0.53125 c 0.15865,-0.63213 -0.2312,-1.069634 -0.69336,-0.777344 -0.44756,0.28299 -0.69457,0.236742 -0.43164,-0.08008 0.39051,-0.47053 0.0195,-0.537864 -0.66406,-0.121094 -1.00297,0.61157 -1.57812,0.532597 -1.57812,-0.214843 0,-0.6437 -0.51681,-0.685346 -0.88672,-0.07227 -0.22255,0.36874 -1.56798,0.355002 -1.71094,-0.01758 -0.0614,-0.15986 -0.36042,-0.355294 -0.66406,-0.433594 l -0.55274,-0.142578 0.72266,-0.248047 c 0.44561,-0.1534 0.95679,-0.184501 1.33789,-0.08203 0.37084,0.09966 0.59785,0.151896 0.73438,0.154297 0.34361,0.126696 0.78582,0.116639 1.01367,-0.125 0.48889,-0.5185 -0.67358,-1.677933 -0.125,-2.132813 0.39847,-0.3304 1.05919,0.63658 1.50586,0.375 0.41173,-0.24112 -0.0728,-1.221619 0.37695,-1.380859 0.11393,-0.04033 0.2243,-0.05617 0.33008,-0.05273 z m 70.14062,1.236329 c 0.66213,4.3e-4 1.19879,0.537086 1.19922,1.199218 v 10.033203 c 3.86702,0.367195 7.13362,3.174696 8.1211,7.109375 0.66299,2.546155 0.15079,5.182461 -1.18946,7.324219 0.98462,1.491417 1.54883,3.253865 1.54883,5.132813 0,1.859684 -0.55163,3.605846 -1.51758,5.08789 0.96994,1.507565 1.51758,3.291614 1.51758,5.154297 0,1.82504 -0.56318,3.592773 -1.55859,5.089844 1.33886,2.115917 1.85796,4.740042 1.20312,7.359375 l -0.002,0.0059 -0.002,0.0059 c -0.9966,3.820293 -4.2583,6.583418 -8.1211,7.0625 v 9.916015 c -4.3e-4,0.662132 -0.53709,1.198789 -1.19922,1.199219 -0.66289,6.46e-4 -1.20074,-0.536325 -1.20117,-1.199219 v -11.041015 c 1.8e-4,-0.157538 0.0314,-0.313499 0.0918,-0.458985 0.0203,-0.04836 0.0438,-0.09534 0.0703,-0.140625 0.0527,-0.09069 0.11704,-0.174085 0.19141,-0.248047 0.0368,-0.03702 0.0759,-0.07159 0.11718,-0.103515 0.20955,-0.160827 0.46632,-0.248017 0.73047,-0.248047 0.005,0 0.009,8e-6 0.0137,0 3.29941,-0.006 6.16037,-2.196713 6.98243,-5.339844 0.42481,-1.707391 0.18474,-3.410184 -0.54688,-4.865234 -0.91214,0.794088 -1.98714,1.423449 -3.18945,1.824219 -3.80453,1.268175 -8.04102,0.183601 -10.45313,-2.970704 -0.17193,-0.226632 -0.25776,-0.506973 -0.24218,-0.791015 -0.0249,-0.302616 0.0658,-0.603426 0.2539,-0.841797 2.05632,-2.604668 5.27061,-3.877386 8.44336,-3.503906 1.05759,0.124493 2.11165,0.431878 3.11524,0.933593 l 0.01,0.0059 0.01,0.0059 c 0.76627,0.401383 1.46574,0.898826 2.08789,1.472656 0.51075,-0.967615 0.79492,-2.043134 0.79492,-3.128906 0,-1.141285 -0.27537,-2.243974 -0.77344,-3.224609 -0.91597,0.822836 -1.99737,1.487465 -3.19922,1.945312 l -0.0234,0.0078 -0.0234,0.0078 c -3.83705,1.279018 -8.05481,0.0074 -10.45313,-3.128906 -0.17599,-0.231309 -0.26204,-0.518628 -0.24218,-0.808594 -0.0199,-0.289966 0.0662,-0.577284 0.24218,-0.808593 1.80908,-2.365722 4.64324,-3.566835 7.55274,-3.484375 0.96983,0.02749 1.94926,0.198581 2.90039,0.515625 1.23375,0.41125 2.33456,1.064991 3.26172,1.896484 0.48992,-0.956439 0.75781,-2.028283 0.75781,-3.160156 0,-1.135024 -0.26919,-2.20986 -0.76172,-3.167969 -0.62957,0.590741 -1.34085,1.103022 -2.12109,1.511719 l -0.0293,0.01563 -0.0312,0.01367 c -4.00885,1.822208 -8.77582,0.724843 -11.51758,-2.748047 -6.5e-4,-0.0013 -10e-4,-0.0026 -0.002,-0.0039 -0.0185,-0.02406 -0.0361,-0.04882 -0.0527,-0.07422 -0.015,-0.02102 -0.0293,-0.04251 -0.043,-0.06445 -0.001,-0.0026 -0.003,-0.0052 -0.004,-0.0078 -0.0241,-0.04227 -0.0456,-0.08597 -0.0644,-0.130859 v -0.002 c -0.0202,-0.04832 -0.0371,-0.0979 -0.0508,-0.148438 -0.009,-0.03611 -0.016,-0.0726 -0.0215,-0.109375 -0.004,-0.01491 -0.007,-0.02989 -0.01,-0.04492 v -0.002 c -0.0186,-0.144754 -0.0107,-0.29169 0.0234,-0.433594 0.002,-0.01306 0.005,-0.02609 0.008,-0.03906 0.0115,-0.04107 0.0252,-0.08149 0.041,-0.121094 0.003,-0.0085 0.006,-0.01697 0.01,-0.02539 0.0137,-0.03122 0.0286,-0.06185 0.0449,-0.0918 0.0105,-0.0205 0.0216,-0.04069 0.0332,-0.06055 0.0165,-0.02672 0.0341,-0.05278 0.0527,-0.07813 0.008,-0.01186 0.0154,-0.02358 0.0234,-0.03516 1.79874,-2.352192 4.61981,-3.655849 7.53711,-3.621093 0.97244,0.01158 1.95676,0.17048 2.91602,0.490234 l 0.0234,0.0098 0.0234,0.0078 c 1.17471,0.447508 2.23417,1.091691 3.13672,1.888672 0.72921,-1.478624 0.97274,-3.180685 0.55469,-4.783203 v -0.0059 l -0.002,-0.0059 c -0.83065,-3.32259 -3.66635,-5.468654 -6.94532,-5.332031 -0.0124,1.91e-4 -0.0247,1.91e-4 -0.0371,0 -0.005,2.6e-5 -0.009,2.6e-5 -0.0137,0 -0.0111,-4.98e-4 -0.0221,-0.0011 -0.0332,-0.002 -0.0339,-5.17e-4 -0.0678,-0.0025 -0.10156,-0.0059 -0.0262,-0.0037 -0.0522,-0.0083 -0.0781,-0.01367 -0.0236,-0.0039 -0.047,-0.0084 -0.0703,-0.01367 -0.0223,-0.0059 -0.0445,-0.01238 -0.0664,-0.01953 -0.0324,-0.0097 -0.0643,-0.02079 -0.0957,-0.0332 -0.0158,-0.0068 -0.0314,-0.01399 -0.0469,-0.02148 -0.0298,-0.01248 -0.0592,-0.02617 -0.0879,-0.04102 -0.0158,-0.0088 -0.0315,-0.01788 -0.0469,-0.02734 -0.0336,-0.02052 -0.0662,-0.04268 -0.0977,-0.06641 -0.009,-0.0064 -0.017,-0.01291 -0.0254,-0.01953 -0.0277,-0.02224 -0.0544,-0.0457 -0.0801,-0.07031 -0.0182,-0.01831 -0.0358,-0.0372 -0.0527,-0.05664 -0.0189,-0.01892 -0.0371,-0.03846 -0.0547,-0.05859 -0.0157,-0.02099 -0.0307,-0.04248 -0.0449,-0.06445 -0.0165,-0.02352 -0.0321,-0.04762 -0.0469,-0.07227 -0.008,-0.01287 -0.0159,-0.02589 -0.0234,-0.03906 -0.0186,-0.03367 -0.0355,-0.06822 -0.0508,-0.103516 -0.006,-0.01421 -0.012,-0.02853 -0.0176,-0.04297 -0.0125,-0.0327 -0.0236,-0.06594 -0.0332,-0.09961 -0.005,-0.02006 -0.01,-0.04025 -0.0137,-0.06055 -0.007,-0.02778 -0.0127,-0.05579 -0.0176,-0.08398 -0.005,-0.03305 -0.008,-0.06629 -0.01,-0.09961 -10e-4,-0.01105 -0.003,-0.02212 -0.004,-0.0332 -3e-5,-0.0052 -3e-5,-0.01042 0,-0.01563 -8.2e-4,-0.01171 -0.001,-0.02343 -0.002,-0.03516 V -83.20047 c 4.3e-4,-0.662893 0.53828,-1.199864 1.20117,-1.199218 z m -74.59765,0.04492 c 0.17755,0.0088 0.34525,0.0529 0.48632,0.152344 0.40431,0.284913 0.24067,1.001079 0.41211,1.462891 -0.45605,-0.09999 -0.96973,-0.57202 -0.79101,-0.785156 0.002,-0.0021 0.005,-0.0057 0.006,-0.0078 0.001,-0.0022 0.003,-0.0076 0.004,-0.0098 v -0.002 -0.002 c -4e-5,-0.0019 2e-5,-0.0047 0,-0.0059 -0.007,-0.06181 -0.17514,-0.134024 -0.41601,-0.167969 -0.31716,-0.04473 -0.68871,-0.206603 -0.92383,-0.359375 0.1064,-0.04774 0.21544,-0.08847 0.32813,-0.123047 0.27505,-0.08439 0.5986,-0.167087 0.89453,-0.152344 z m 10.25781,2.363282 c 0.0976,10e-5 0.1582,0.02684 0.1582,0.08984 0,0.0947 0.18533,0.125707 0.41211,0.06641 0.23054,-0.06028 0.41211,-0.0076 0.41211,0.121093 0,0.12672 -0.14755,0.230469 -0.32812,0.230469 -0.18055,0 -0.56324,0.18532 -0.85157,0.41211 -0.86433,0.67987 -1.74412,0.482981 -1.19531,-0.267579 0.22381,-0.306076 1.04416,-0.652703 1.39258,-0.652343 z m -13.82422,0.267578 -0.47852,0.646484 c -0.32578,0.4407 -0.59973,0.615275 -0.86132,0.546875 -0.23136,-0.0605 -0.78196,0.184985 -1.38086,0.615235 -0.65114,0.46776 -1.042268,0.635988 -1.134768,0.486328 -0.09208,-0.149 -0.245203,-0.08007 -0.439453,0.197265 -0.32308,0.46127 -2.017508,0.585629 -1.861328,0.136719 0.04279,-0.12297 0.362014,-0.196409 0.708984,-0.162109 0.53258,0.05252 1.223432,-0.321485 0.732422,-0.396485 -0.05436,-0.0083 -0.10913,-0.016 -0.16211,-0.02344 0.005,-0.0019 0.01065,-0.0039 0.01563,-0.0059 0.747407,-0.29599 0.783333,-1.534582 1.507803,-1.882812 0.6412,-0.30818 1.4527,0.20868 2.13282,0 0.0941,-0.02888 0.18572,-0.06338 0.27539,-0.101563 0.1081,0.02302 0.23979,0.02859 0.3789,0.01172 z m 8.91406,0.716797 c 0.009,-9.22e-4 0.0172,1.96e-4 0.0234,0.002 9.7e-4,3.66e-4 0.005,0.0015 0.006,0.002 l 0.002,0.002 0.002,0.002 0.002,0.002 0.002,0.002 0.002,0.002 0.002,0.002 v 0.002 h 0.002 v 0.002 c 0.0128,0.03883 -0.024,0.131855 -0.0977,0.269531 -0.11852,0.22146 -0.35491,0.518656 -0.5254,0.660156 -0.17047,0.14148 -0.4192,0.597512 -0.55273,1.013672 -0.13353,0.41615 -0.38463,0.920011 -0.55859,1.119141 -0.56692,0.64856 -0.0664,0.650389 1.24609,0.0059 2.19051,-1.07574 2.36481,-1.121252 2.48438,-0.664062 0.0666,0.25449 -4.2e-4,0.398437 -0.18555,0.398437 -0.15947,0 -0.29102,0.138494 -0.29102,0.308594 0,0.1701 0.18029,0.310547 0.40039,0.310547 1.09566,0 0.52674,1.02035 -0.9414,1.6875 -1.81239,0.82359 -1.95714,0.865925 -2.98047,0.890625 -0.8027,0.01935 -1.12433,0.168744 -2.13281,0.990234 -1.47938,1.20511 -2.01364,1.292547 -1.25196,0.205078 0.23675,-0.33808 0.24808,-0.461596 0.0508,-0.529296 -0.15824,-0.05432 0.0846,-0.431409 0.63086,-0.980469 1.18339,-1.18945 1.42459,-2.167868 0.48243,-1.960938 -0.9302,0.20431 -0.81098,-0.618435 0.20117,-1.384765 0.48077,-0.36401 0.79732,-0.804308 0.88672,-1.236328 0.1259,-0.60853 0.16482,-0.637567 0.41015,-0.310547 0.36759,0.49003 0.84738,0.45256 1.62891,-0.125 0.62177,-0.459534 0.94206,-0.676137 1.05273,-0.6875 z m -7.21679,0.478515 c 0.18613,-0.0079 0.42586,0.03468 0.67187,0.140625 0.45412,0.19556 0.79914,1.027892 0.57617,1.388672 -0.067,0.10838 0.12429,0.290427 0.42383,0.404297 0.85177,0.32385 0.50654,0.718422 -0.64062,0.732422 -0.55735,0.0068 -1.21598,0.121279 -1.46289,0.255859 -0.24693,0.13426 -0.58513,0.192907 -0.75196,0.128907 -0.16686,-0.06397 -0.3661,-0.01644 -0.4414,0.105468 -0.0753,0.12194 0.0163,0.279963 0.20312,0.351563 0.27145,0.10418 0.28428,0.165347 0.0645,0.304687 -0.15124,0.09587 -0.52995,0.176735 -0.84179,0.177735 -0.69802,0.0039 -0.77571,-0.551095 -0.11133,-0.796875 l 0.45703,-0.169922 -0.48242,-0.257813 c -0.35769,-0.19135 -0.60782,-0.200496 -0.9707,-0.03516 -0.531,0.24194 -0.64359,0.06399 -0.23243,-0.369141 0.21211,-0.223505 0.0854,-0.247882 -0.7207,-0.132812 -0.97152,0.1387 -1.24216,-0.03112 -0.72266,-0.457031 0.50512,-0.41412 2.9207,-1.076172 3.92579,-1.076172 0.85829,0 0.98283,-0.04772 0.77929,-0.292969 -0.19557,-0.23565 -0.0329,-0.389257 0.27735,-0.402344 z m 12.24218,0.28125 c 0.37872,0 0.29764,0.407544 -0.11132,0.558594 -0.49756,0.1838 -1.28116,0.936475 -1.28516,1.234375 -0.002,0.13505 -0.0975,0.303047 -0.21094,0.373047 -0.11338,0.07008 -0.20508,-0.04538 -0.20508,-0.255859 0,-0.41988 1.41391,-1.910157 1.8125,-1.910157 z m -21.269528,0.185547 c 0.392389,0.01316 0.790867,0.165251 1.183594,0.291016 -0.894667,0.01225 -1.582645,0.230504 -2.27539,0.683594 -0.58621,0.3834 -1.166533,0.695312 -1.289063,0.695312 -0.12259,0 -0.222656,0.08433 -0.222656,0.185547 0,0.38409 -0.71278,0.453793 -0.97461,0.0957 -0.112204,-0.153412 -0.177959,-0.230853 -0.214843,-0.222656 h -0.002 -0.002 l -0.002,0.002 c -0.03544,0.02129 -0.04102,0.141693 -0.04102,0.375 0,0.97451 -1.357764,1.483183 -1.589844,0.595703 -0.0014,-0.0052 -0.0025,-0.0105 -0.0039,-0.01563 0.707668,-0.707385 1.506357,-1.329396 2.378906,-1.802734 0.88435,-0.47974 1.883589,-0.801707 2.886719,-0.878907 0.05576,-0.0043 0.111913,-0.0058 0.167968,-0.0039 z m 23.470708,0.417969 c 0.19072,-0.0091 0.38357,0.166769 0.52734,0.544922 0.27194,0.71501 0.25164,0.921915 -0.0742,0.796875 -0.15194,-0.05831 -0.37381,0.105207 -0.5,0.367187 -0.0821,0.170514 -0.15907,0.265264 -0.20312,0.267578 -5.1e-4,-2.5e-5 -0.005,-2.6e-5 -0.006,0 -9.4e-4,-2.63e-4 -0.005,-0.0016 -0.006,-0.002 h -0.002 l -0.002,-0.002 c -0.002,-0.0014 -0.006,-0.006 -0.008,-0.0078 -0.008,-0.01238 -0.0143,-0.0356 -0.0156,-0.06445 -0.008,-0.15385 -0.13291,-0.233835 -0.27929,-0.177735 -0.2116,0.08121 -0.22355,-0.0833 -0.0566,-0.802734 0.13718,-0.591278 0.37977,-0.90823 0.625,-0.919922 z m -23.318364,1.072266 c 0.166155,8.07e-4 0.337241,0.07644 0.636719,0.21289 0.62841,0.28631 0.66108,0.498251 0.125,0.785156 -1.1542,0.61769 -2.712054,0.05782 -1.646484,-0.591796 0.4635,-0.282561 0.671137,-0.407289 0.884765,-0.40625 z m -1.464844,2.708984 h 0.002 0.002 0.002 c 0.03671,-0.0035 0.09284,0.01607 0.167969,0.0625 0.12545,0.07758 0.634582,0.133447 1.132812,0.123047 1.05319,-0.02114 1.182918,0.241554 0.273438,0.558594 -0.34869,0.12157 -0.575707,0.317273 -0.503907,0.433593 0.06809,0.110176 0.08472,0.177371 0.06641,0.208985 -6.65e-4,9.45e-4 -0.0032,0.005 -0.0039,0.0059 l -0.002,0.002 -0.002,0.002 c -0.08748,0.06009 -0.472019,-0.182472 -0.761719,-0.550781 -0.361352,-0.459382 -0.505971,-0.821591 -0.373047,-0.845703 z m 5.326168,0.587891 c 0.28111,-0.0063 0.29479,0.250137 -0.12695,0.671875 -0.1716,0.17161 -0.368099,0.594646 -0.437499,0.941406 -0.14573,0.72865 -0.79396,0.875732 -1,0.226562 -0.16247,-0.51192 0.143581,-1.09092 0.806641,-1.52539 0.32457,-0.212659 0.589148,-0.310699 0.757808,-0.314453 z m 25.50196,1.363281 c 0.531,-0.005 0.64771,0.216447 0.0957,0.390625 -0.53988,0.170375 -0.83062,0.289872 -0.87305,0.361328 -0.001,0.0022 -0.003,0.0077 -0.004,0.0098 v 0.002 l -0.002,0.002 v 0.002 0.002 0.002 l 0.002,0.002 v 0.002 0.002 0.002 l 0.002,0.002 c 10e-4,0.0017 0.006,0.0062 0.008,0.0078 0.0515,0.03947 0.25635,0.05246 0.60938,0.03516 0.56353,-0.02757 0.93742,-0.146205 0.95312,-0.302735 0.0141,-0.14176 0.0385,-0.307887 0.0527,-0.367187 v -0.002 l 0.002,-0.002 v -0.002 l 0.002,-0.002 0.002,-0.002 c 8.1e-4,-4.97e-4 0.005,-0.0035 0.006,-0.0039 0.0559,-0.02003 0.25903,0.06786 0.48632,0.216797 0.41066,0.26908 1.89307,0.511487 3.39258,0.554687 0.44423,0.01283 0.68771,0.38086 0.25196,0.38086 -0.007,0 -0.0128,0.0014 -0.0176,0.0039 l -0.002,0.002 -0.002,0.002 -0.002,0.002 -0.002,0.002 c -6.5e-4,9.71e-4 -0.003,0.0048 -0.004,0.0059 -0.0259,0.07464 0.17379,0.371542 0.49414,0.722656 0.37129,0.40695 0.74914,0.87123 0.83984,1.03125 0.25274,0.44601 1.31255,0.922411 1.71094,0.769531 0.28354,-0.10878 0.33209,-0.04885 0.24219,0.294922 -0.1138,0.43513 0.60733,1.310701 1.2832,1.556641 0.0372,0.01354 0.0609,0.02637 0.0703,0.03906 v 0.002 l 0.002,0.002 v 0.002 l 0.002,0.002 c 1.3e-4,8.76e-4 0,0.005 0,0.0059 v 0.002 c -2.7e-4,8.51e-4 -0.002,0.005 -0.002,0.0059 v 0.002 l -0.002,0.002 c -0.0306,0.03164 -0.16142,0.05897 -0.36328,0.06445 -0.33126,0.0089 -0.74871,-0.105756 -0.92773,-0.253906 -0.17902,-0.14818 -0.60317,-0.387893 -0.94336,-0.533203 l -0.61914,-0.265625 0.43945,0.482421 c 0.4054,0.446063 0.97945,1.377018 0.99805,1.617188 0.0117,0.06542 0.25516,0.43354 0.54687,0.824219 0.4985,0.66757 0.58917,1.274763 0.39844,2.658203 v 0.002 0.002 h -0.002 v 0.002 l -0.002,0.002 h -0.002 v 0.002 h -0.002 -0.002 -0.002 c -0.10992,-0.02274 -0.8326,-0.818895 -1.44336,-1.599609 -0.65304,-0.83478 -1.18178,-0.648087 -0.71484,0.251953 0.39606,0.76371 0.38904,1.173618 -0.0176,1.017578 -0.25467,-0.09772 -0.29327,-0.01687 -0.18945,0.396485 0.0716,0.28546 0.0403,0.576131 -0.0703,0.644531 -0.2666,0.16474 -0.47213,-0.401541 -0.30468,-0.837891 0.10007,-0.26085 0.0483,-0.31229 -0.21094,-0.21289 -0.24828,0.09528 -0.3783,-0.0091 -0.4707,-0.376953 -0.0701,-0.27949 -0.25627,-0.507813 -0.41407,-0.507813 -0.1578,0 -0.28711,-0.150004 -0.28711,-0.333984 0,-0.115564 0.0126,-0.187085 0.043,-0.212891 0.0426,-0.03011 0.12315,0.01652 0.26563,0.134766 0.25796,0.21404 0.31055,0.184868 0.31055,-0.169922 0,-0.23397 -0.0817,-0.47541 -0.18165,-0.53711 -0.69419,-0.42905 -0.2804,-1.918052 0.42774,-1.539062 0.35733,0.19128 0.39343,0.166241 0.2793,-0.193359 -0.0721,-0.22698 -0.0415,-0.46921 0.0684,-0.53711 0.10983,-0.0679 0.25561,0.05332 0.32421,0.269531 0.10808,0.340511 0.9375,0.784534 0.9375,0.501954 0,-0.5647 -0.90159,-1.295667 -1.23046,-0.998047 -0.51589,0.46686 -3.38587,-1.237027 -3.41797,-2.029297 -0.005,-0.12711 -0.12639,-0.207635 -0.26758,-0.177735 -0.14119,0.02989 -0.43795,-0.0432 -0.66016,-0.162109 -0.28273,-0.15196 -0.40429,-0.150517 -0.40429,0.002 0,0.1198 0.25653,0.33013 0.56835,0.46875 1.44522,0.64241 2.37472,2.11235 2.44532,3.863281 0.0481,1.19433 0.37578,3.492717 0.60937,4.279297 0.16381,0.55153 -0.28051,1.747495 -0.60937,1.640625 -0.34848,-0.11317 -0.85169,-1.245431 -0.5918,-1.332031 0.34893,-0.11632 0.0443,-1.754868 -0.42187,-2.267578 -0.58204,-0.64011 -0.70478,-0.590305 -0.86524,0.359375 -0.0766,0.45359 -0.21579,0.826172 -0.30859,0.826172 -0.0928,0 -0.11985,0.185309 -0.0606,0.412109 0.0592,0.22678 0.009,0.41211 -0.11133,0.41211 -0.2878,0 -0.85937,-0.828011 -0.85937,-1.244141 0,-0.18017 -0.18531,-0.526101 -0.41211,-0.769531 -0.22679,-0.24343 -0.41406,-0.535045 -0.41406,-0.646485 0,-0.11145 -0.10105,-0.26615 -0.22657,-0.34375 -0.30572,-0.18894 -0.0266,1.106102 0.35742,1.658203 0.15562,0.223677 0.28321,0.580569 0.28321,0.792969 0,0.21241 0.16875,0.632604 0.37695,0.933594 0.64785,0.93661 0.69295,1.0625 0.37891,1.0625 -0.16385,0 -0.64166,-0.348207 -1.0625,-0.773438 l -0.76563,-0.773437 0.14649,0.720703 c 0.0804,0.39689 0.26015,0.86114 0.40039,1.03125 0.37015,0.44897 0.54495,1.03125 0.30859,1.03125 -0.1143,0 -0.14682,0.226425 -0.0742,0.515625 0.0692,0.275688 0.0833,0.435508 0.0449,0.478516 l -0.002,0.002 h -0.002 v 0.002 h -0.002 l -0.002,0.002 -0.002,0.002 -0.002,0.002 h -0.002 c -0.002,6.08e-4 -0.008,0.0017 -0.01,0.002 -0.0789,0.0018 -0.25933,-0.217472 -0.5293,-0.654296 -0.23258,-0.37633 -0.4689,-1.204502 -0.5293,-1.857422 -0.06,-0.64842 -0.15644,-1.409507 -0.21484,-1.691407 -0.0585,-0.281907 -0.15399,-0.745806 -0.21289,-1.029296 -0.0589,-0.2835 -0.20105,-0.513672 -0.31445,-0.513672 -0.1145,0 -0.15064,0.218527 -0.082,0.492187 0.13687,0.54528 -0.20861,0.923174 -0.39648,0.433594 -0.1732,-0.45136 -0.47745,-0.37545 -0.62695,0.15625 -0.15866,0.56434 -0.57277,0.03392 -0.66797,-0.855469 -0.0291,-0.27187 -0.14903,-0.592377 -0.26758,-0.710937 -0.14996,-0.14994 -0.0804,-0.358563 0.23047,-0.689453 0.20357,-0.216646 0.32998,-0.402129 0.32031,-0.458985 -2.8e-4,-9.81e-4 -0.002,-0.005 -0.002,-0.0059 v -0.002 l -0.002,-0.002 -0.002,-0.002 -0.002,-0.002 c -8.8e-4,-4.07e-4 -0.005,-0.0016 -0.006,-0.002 -0.002,-3.1e-4 -0.005,-0.0015 -0.008,-0.002 h -0.002 c -0.417,0 0.54873,-0.898769 0.98633,-0.917969 0.36492,-0.01598 0.45425,0.04601 0.3125,0.216797 -0.12786,0.15403 -0.11834,0.448408 0.0273,0.830078 0.21774,0.57038 0.23644,0.57891 0.51953,0.19336 0.11869,-0.161702 0.22327,-0.262756 0.26953,-0.267578 h 0.002 0.002 0.002 l 0.002,0.002 h 0.002 0.002 l 0.002,0.002 0.002,0.002 h 0.002 v 0.002 h 0.002 v 0.002 0.002 l 0.002,0.002 c 0.002,0.0048 0.004,0.01427 0.004,0.02148 0,0.09219 0.12748,0.06088 0.2832,-0.06836 0.15572,-0.129214 0.43274,-0.176268 0.61719,-0.105468 0.21693,0.08325 0.33594,0.02023 0.33594,-0.177735 0,-0.16834 0.14046,-0.42132 0.31054,-0.5625 0.17009,-0.14116 0.3086,-0.445291 0.3086,-0.675781 0,-0.41313 -0.006,-0.414554 -0.44336,-0.02734 -0.20687,0.183314 -0.31748,0.280878 -0.36328,0.279297 h -0.002 -0.002 -0.002 l -0.002,-0.002 h -0.002 l -0.002,-0.002 h -0.002 v -0.002 l -0.002,-0.002 c -0.0244,-0.03372 0.004,-0.162477 0.0606,-0.396485 0.0993,-0.40958 -0.0324,-0.687995 -0.63086,-1.322265 -0.41676,-0.44174 -0.78024,-0.95083 -0.80664,-1.13086 -0.0264,-0.18002 -0.24888,-0.4889 -0.49414,-0.6875 -0.22102,-0.178982 -0.3225,-0.273831 -0.31446,-0.320312 v -0.002 -0.002 l 0.002,-0.002 0.002,-0.002 0.002,-0.002 c 0.0281,-0.02472 0.11431,-0.03401 0.24805,-0.03516 0.13705,-0.0011 0.2176,-0.0072 0.24609,-0.02734 l 0.002,-0.002 v -0.002 h 0.002 0.002 c 6.3e-4,-8.63e-4 0.003,-0.005 0.004,-0.0059 3.4e-4,-9.46e-4 0.002,-0.0049 0.002,-0.0059 8e-5,-0.0015 9e-5,-0.0052 0,-0.0078 v -0.002 c -0.0102,-0.03151 -0.0731,-0.08238 -0.18359,-0.15625 -0.2712,-0.18134 -0.26691,-0.231687 0.0352,-0.410157 0.31361,-0.1853 0.31521,-0.260844 0.0293,-0.833984 -0.39863,-0.79909 0.003,-1.344763 1.08203,-1.470703 0.092,-0.01074 0.1761,-0.01491 0.25196,-0.01563 z m -23.11719,0.794922 c 0.17414,-0.0035 0.27539,0.197416 0.27539,0.589843 0,0.30491 -0.26116,0.678787 -0.7207,1.029297 -0.343,0.261598 -0.63846,0.407558 -0.71094,0.371094 h -0.002 l -0.002,-0.002 c -0.003,-0.0042 -0.007,-0.01301 -0.008,-0.01953 v -0.002 -0.002 c 0,-0.112463 0.0936,-0.262031 0.20703,-0.332031 0.11336,-0.07009 0.20508,-0.227076 0.20508,-0.347656 0,-0.14625 -0.0859,-0.150985 -0.25781,-0.01563 -0.14173,0.11165 -0.53482,0.263491 -0.875,0.337891 l -0.61914,0.134765 0.57812,-0.517578 c 0.31817,-0.28553 0.69755,-0.519531 0.84375,-0.519531 0.1462,0 0.43195,-0.184083 0.63477,-0.408203 0.17813,-0.196837 0.33202,-0.294468 0.45117,-0.296875 z m -13.640625,1.9375 -0.826172,0.271484 c -0.58456,0.19185 -0.806572,0.373314 -0.763672,0.621094 0.04587,0.26476 -0.09026,0.347656 -0.560547,0.347656 -1.26858,0 -0.206428,-0.950439 1.263672,-1.130859 z m 24.576175,3.230468 c 0.0151,-7.62e-4 0.03,-6.11e-4 0.0449,0 0.0718,0.0029 0.14089,0.0218 0.19726,0.05664 0.1911,0.1181 0.074,0.235701 -0.39843,0.400391 -0.98449,0.34318 -2.25782,0.247838 -2.25782,-0.169922 0,-0.09 0.41838,-0.118047 0.92774,-0.06055 0.51807,0.0584 1.04251,0.0084 1.1914,-0.115234 0.0809,-0.0671 0.18906,-0.105991 0.29493,-0.111329 z m 6.01172,0.08398 c 0.30023,-0.006 0.35901,0.193716 -0.0137,0.566406 -0.13607,0.13609 -0.57594,0.246524 -0.97851,0.246094 h -0.73242 l 0.67578,-0.41211 c 0.43688,-0.266349 0.81531,-0.395705 1.04883,-0.40039 z m 8.81835,0.02148 c -0.11424,0.01178 -0.13221,0.252422 -0.0918,0.740235 0.04,0.4835 0.16109,0.752803 0.32226,0.720703 0.28252,-0.0565 0.3248,0.152082 0.13282,0.652343 -0.0686,0.178783 -0.20707,0.273738 -0.3086,0.210938 -0.10157,-0.06267 -0.18554,-0.01462 -0.18554,0.105469 0,0.29718 0.31675,0.273724 0.57031,-0.04102 0.43632,-0.54173 0.46574,-1.477241 0.0625,-1.957031 -0.24648,-0.293263 -0.40724,-0.441401 -0.50196,-0.431641 z m 9.44532,0.07617 c 0.40979,0.660762 0.79721,1.334749 1.15625,2.021484 -0.68713,-0.782459 -1.06469,-1.422039 -1.15625,-2.021484 z m -17.41211,0.308594 c 0.10774,-0.0065 0.20703,0.06324 0.20703,0.207031 0,0.11695 -0.16095,0.27215 -0.35938,0.34375 -0.19844,0.07159 -0.59345,0.283323 -0.87695,0.470703 -0.48698,0.32183 -0.94304,0.339745 -1.65039,0.06641 -0.0133,-0.0051 -0.0216,-0.01109 -0.0273,-0.01758 l -0.002,-0.002 -0.002,-0.002 v -0.002 l -0.002,-0.002 v -0.002 -0.002 -0.002 h -0.002 v -0.002 -0.002 -0.002 c 0.0162,-0.08315 0.4445,-0.235115 1.06641,-0.367187 0.73707,-0.15653 1.37236,-0.375022 1.41016,-0.486329 0.0428,-0.125848 0.14321,-0.191542 0.23828,-0.197265 z m -5.66797,0.220703 -0.4668,0.386719 c -0.25667,0.21226 -0.58048,0.427115 -0.7207,0.478515 -0.19556,0.07176 -0.19933,0.154053 -0.0137,0.351563 0.18629,0.19821 0.39659,0.203759 0.9082,0.02539 0.3657,-0.127447 0.84441,-0.230468 1.06445,-0.230468 0.22005,0 0.56116,-0.20047 0.75782,-0.44336 0.19669,-0.24294 0.48831,-0.39705 0.64843,-0.34375 0.41991,0.13998 -0.70467,1.136008 -1.47265,1.304688 -0.34817,0.07647 -0.6015,0.267242 -0.60157,0.451172 0,0.110177 0.0136,0.176587 0.0449,0.199218 10e-4,6.62e-4 0.003,0.0014 0.004,0.002 0.0446,0.01745 0.1258,-0.02944 0.25977,-0.140625 0.14645,-0.121583 0.22938,-0.171235 0.27148,-0.148438 l 0.002,0.002 h 0.002 v 0.002 h 0.002 v 0.002 c 0.0218,0.0207 0.0332,0.06899 0.0332,0.142579 0,0.07353 0.007,0.121928 0.0293,0.142578 0.002,0.0016 0.008,0.0047 0.01,0.0059 0.0431,0.01842 0.12678,-0.02997 0.26953,-0.148437 0.18387,-0.15248 0.56093,-0.206213 0.92773,-0.132813 0.33991,0.06792 0.61914,0.0377 0.61914,-0.06641 0,-0.23108 1.98599,-0.216289 2.62891,0.01953 0.34432,0.12629 0.46289,0.333721 0.46289,0.806641 0,0.93307 0.33132,1.402252 1.0918,1.544922 0.65964,0.12374 0.87333,0.638784 0.51562,1.240234 -0.45337,0.76225 -0.39894,1.552364 0.0977,1.427734 0.52645,-0.13213 0.54686,-0.03534 0.38476,1.769532 -0.0159,0.17662 -0.39974,0.485345 -0.85351,0.685546 -1.2327,0.54388 -1.91048,1.365235 -1.12695,1.365235 0.17366,0 0.37024,0.138514 0.43554,0.308594 0.0653,0.17011 0.23483,0.310546 0.37891,0.310546 0.14407,1e-6 0.37837,0.138494 0.51953,0.308594 0.21668,0.26116 0.17438,0.308594 -0.26758,0.308594 -0.28793,0 -0.56403,-0.116044 -0.61523,-0.257813 -0.003,-0.0089 -0.008,-0.01624 -0.0117,-0.02148 -9.4e-4,-0.0011 -0.005,-0.005 -0.006,-0.0059 l -0.002,-0.002 -0.002,-0.002 h -0.002 -0.002 l -0.002,-0.002 h -0.002 -0.002 v 0.002 h -0.002 c -0.002,6.04e-4 -0.005,0.0028 -0.008,0.0039 h -0.002 c -0.0573,0.04956 -0.13992,0.341741 -0.20508,0.757812 -0.13284,0.84739 -0.21754,0.979535 -0.58984,0.927735 -0.29903,-0.04155 -0.45678,0.06944 -0.50782,0.353515 -0.0407,0.22678 -0.19644,0.50735 -0.3457,0.625 -0.32689,0.25767 -0.46544,1.127218 -0.23828,1.492188 0.28702,0.46111 -1.13403,2.207522 -1.81641,2.232422 -0.34647,0.01263 -0.72501,0.21243 -0.9375,0.49414 -0.21003,0.2785 -0.45645,0.410013 -0.60156,0.320313 -0.13541,-0.0836 -0.48552,-0.09283 -0.77734,-0.01953 l -0.53125,0.132813 0.69531,0.556641 c 2.2319,1.78838 2.24174,1.986998 0.0781,1.480468 -0.90595,-0.21217 -1.84232,-0.337894 -2.08204,-0.279297 -0.43731,0.106991 -0.88852,-0.649522 -0.4707,-0.789062 1.37558,-0.45941 0.0877,-2.217499 -1.33203,-1.818359 -0.89865,0.25264 -1.30774,0.303996 -3.9082,0.503906 -0.93255,0.07169 -1.82019,0.262365 -2.11133,0.453125 -0.27632,0.18109 -0.6342,0.279297 -0.79688,0.216797 -0.62341,-0.23923 -0.81137,0.4216 -0.36328,1.28125 0.49422,0.94825 0.51997,4.480276 0.0391,5.378906 -0.57713,1.07841 -0.68162,3.9772 -0.1582,4.375 0.40185,0.30539 0.42929,0.410414 0.20703,0.771484 -0.14175,0.23028 -0.25781,0.734934 -0.25781,1.121094 0,1.6276 -2.99683,3.681706 -3.4707,2.378906 -0.0378,-0.10394 -0.43087,-0.189453 -0.875003,-0.189453 -0.54165,0 -0.948185,-0.139581 -1.234375,-0.425781 -0.494119,-0.49411 -1.429687,-0.109609 -1.429687,0.587891 0,0.197 -0.241879,0.61911 -0.537109,0.9375 -0.43562,0.46982 -0.510821,0.701935 -0.400391,1.234375 0.07474,0.36084 0.141484,0.869649 0.146484,1.130859 0.01898,0.94898 0.66664,0.383011 1.19336,-1.042969 0.56425,-1.52756 0.712399,-1.620732 1.412109,-0.882812 0.2609,0.27515 0.978552,0.647342 1.593752,0.826172 1.02077,0.29674 1.78175,0.968242 1.46094,1.289062 -8.4e-4,0.001 -0.003,0.0048 -0.004,0.0059 -0.0384,0.07384 0.13178,0.296094 0.39844,0.50586 0.27965,0.21997 0.50976,0.559979 0.50976,0.755859 0,0.19589 0.10701,0.464453 0.23828,0.595703 0.18076,0.18079 0.17374,0.31785 -0.0293,0.5625 -0.129,0.155435 -0.209,0.302059 -0.19727,0.353516 v 0.002 0.002 l 0.002,0.002 0.002,0.002 v 0.002 l 0.002,0.002 0.002,0.002 0.002,0.002 c 1.14472,0.65864 1.68628,0.497761 1.49804,-0.443359 -0.10162,-0.50813 -0.0307,-0.612739 0.57422,-0.855469 0.74043,-0.29708 1.69865,-1.024669 2.85352,-2.167969 0.39688,-0.39293 0.82721,-0.715264 0.95508,-0.714844 0.12785,4e-4 0.3471,-0.138503 0.48828,-0.308593 0.45596,-0.5494 2.14889,-0.303271 3.26758,0.474609 0.22776,0.15893 0.22798,0.267377 0.006,0.623047 -0.32844,0.52593 -0.16581,0.718812 0.58594,0.695312 0.31461,-0.0098 0.92046,-0.02476 1.34571,-0.03516 0.55036,-0.0126 0.77343,-0.108414 0.77343,-0.333984 0,-0.20565 -0.12726,-0.279085 -0.36133,-0.208985 -0.51909,0.15571 -1.43191,-0.636467 -1.10742,-0.960937 0.19046,-0.19046 0.27204,-0.141646 0.36524,0.214844 0.14171,0.54195 0.53179,0.625099 0.46679,0.09961 -0.0246,-0.19844 0.0262,-0.525993 0.11329,-0.726563 0.20121,-0.46347 -1.00619,-1.585843 -1.71094,-1.589843 -0.28836,-0.002 -0.73653,-0.29244 -1.11914,-0.72461 -0.35138,-0.39689 -0.81005,-0.722656 -1.01953,-0.722656 -0.20949,0 -0.4347,-0.138484 -0.5,-0.308594 -0.0653,-0.17009 -0.22586,-0.309946 -0.35547,-0.310547 -0.60735,-0.0034 -1.32532,-1.924157 -0.90821,-2.429687 0.20795,-0.25185 0.20944,-0.335097 0.004,-0.404297 -0.14175,-0.04772 -0.25781,-0.2581 -0.25781,-0.46875 0,-0.21065 -0.0936,-0.439757 -0.20703,-0.509766 -0.11336,-0.07009 -0.20508,-0.303908 -0.20508,-0.517578 0,-0.21366 -0.17217,-0.50808 -0.38086,-0.65625 -0.48746,-0.3461 -0.77969,-2.895275 -0.37109,-3.234375 0.18933,-0.15714 0.35542,-0.10681 0.60742,0.1875 0.37624,0.43941 0.57402,0.474658 1.58008,0.273438 0.55517,-0.11103 0.64846,-0.210905 0.57226,-0.609375 -0.1279,-0.66912 0.33382,-0.763921 0.88086,-0.181641 0.95733,1.01903 2.09444,0.858683 2.875,-0.404297 0.51216,-0.82868 0.95075,-0.784835 1.14844,0.115235 0.10598,0.48332 0.21521,0.583375 0.52734,0.484375 0.61932,-0.19656 0.48594,0.428982 -0.19531,0.914062 -0.32464,0.23119 -0.64027,0.369494 -0.70117,0.308594 -0.0609,-0.06087 -0.1714,-0.01159 -0.2461,0.109375 -0.0784,0.12689 0.0314,0.220703 0.26172,0.220703 0.21961,0 0.50965,0.132412 0.64453,0.294922 0.47171,0.56838 -1.45105,1.260016 -2.46093,0.884766 -0.72785,-0.27041 -1.44336,-0.289983 -1.44336,-0.03906 0,0.69339 3.50868,0.949941 5.05078,0.369141 1.09638,-0.41293 1.27437,-0.789063 0.375,-0.789063 -0.29931,0 -0.58266,-0.116072 -0.63086,-0.257812 -0.0501,-0.14741 0.0829,-0.25586 0.31055,-0.25586 0.21885,0 0.73197,-0.325756 1.14062,-0.722656 0.42286,-0.41068 0.95177,-0.720703 1.22852,-0.720703 0.26743,0 0.66661,-0.136234 0.88671,-0.302734 0.22012,-0.16649 0.5274,-0.307547 0.68165,-0.310547 0.15424,-0.0036 0.69029,-0.423314 1.19335,-0.933594 0.59049,-0.59896 1.0953,-0.927734 1.42188,-0.927734 0.51297,0 0.75592,-0.612 0.24805,-0.625 -0.0418,-0.0011 -0.0697,-0.01037 -0.084,-0.02539 -7.4e-4,-9.29e-4 -0.003,-0.0049 -0.004,-0.0059 l -0.002,-0.002 -0.002,-0.002 v -0.002 c -0.0155,-0.04642 0.0507,-0.134369 0.19531,-0.24414 0.19844,-0.15064 0.35938,-0.3692 0.35938,-0.486329 0,-0.1171 0.15017,-0.270043 0.33203,-0.339843 0.20446,-0.07837 0.28097,-0.254951 0.20117,-0.462891 -0.0441,-0.115018 -0.0651,-0.188898 -0.0566,-0.216797 l 0.002,-0.002 0.002,-0.002 v -0.002 h 0.002 v -0.002 h 0.002 l 0.002,-0.002 h 0.002 c 0.001,4.1e-5 0.003,5.1e-5 0.004,0 10e-4,1.6e-5 0.005,-1.15e-4 0.006,0 0.0351,0.0064 0.1073,0.0579 0.21875,0.15039 0.29309,0.24321 0.40768,0.146083 0.33008,-0.279297 -0.0181,-0.099 0.11041,-0.125593 0.28516,-0.05859 0.17472,0.06704 0.31836,0.03175 0.31836,-0.07813 0,-0.1098 -0.0936,-0.199219 -0.20703,-0.199219 -0.11336,0 -0.20508,-0.111967 -0.20508,-0.248047 0,-0.06915 0.007,-0.113355 0.0254,-0.132813 l 0.002,-0.002 0.002,-0.002 c 9.1e-4,-5.63e-4 0.005,-0.0034 0.006,-0.0039 h 0.002 l 0.002,-0.002 h 0.002 0.002 0.002 c 0.0374,-0.0031 0.10195,0.04336 0.20117,0.142578 0.13608,0.13608 0.40136,0.248047 0.58789,0.248047 0.18654,0 0.50571,0.185319 0.71094,0.412109 0.20525,0.22678 0.49788,0.41211 0.65039,0.41211 0.15252,0 0.27734,0.07055 0.27734,0.15625 1e-5,0.08573 0.27503,0.276911 0.61133,0.425781 0.6293,0.27855 0.52277,1.068359 -0.14453,1.068359 -0.1593,0 -0.25976,0.277983 -0.25976,0.720703 0,0.73123 -0.32755,0.97857 -0.54493,0.41211 -0.0653,-0.17009 -0.24634,-0.308594 -0.40429,-0.308594 -0.3373,0 -0.38331,0.329264 -0.0723,0.521484 0.14655,0.09053 0.1353,0.231722 -0.0371,0.439453 -0.19619,0.236093 -0.19896,0.342065 -0.01,0.458985 0.17079,0.10555 0.0259,0.409114 -0.47657,0.996094 -0.39759,0.46447 -0.72746,0.969023 -0.73046,1.121093 -0.004,0.15207 -0.14212,0.457625 -0.3086,0.677735 -0.16648,0.22012 -0.30273,0.65589 -0.30273,0.96875 0,0.31289 -0.14592,0.6502 -0.32422,0.75 -0.17831,0.09979 -0.37605,0.568185 -0.43945,1.041015 -0.0634,0.47283 -0.2025,0.859375 -0.3086,0.859375 -0.10607,0 -0.48891,0.301392 -0.85156,0.669922 -1.19359,1.21295 -2.23652,2.01352 -2.45117,1.88086 -0.24332,-0.15037 -1.69369,1.34734 -1.4961,1.544921 0.072,0.07198 0.24958,-0.03221 0.39453,-0.230468 0.14499,-0.19828 0.41758,-0.359375 0.60352,-0.359375 0.42696,0 0.44345,0.590033 0.0215,0.751953 -0.19826,0.07639 -0.2691,0.264954 -0.1914,0.509765 0.0753,0.23728 0.0234,0.386719 -0.13281,0.386719 -0.38555,0 -1.00977,0.63797 -1.00977,1.03125 0,0.60942 -1.02732,0.921902 -1.37891,0.419922 -0.54672,-0.78054 -1.2464,-0.435171 -0.91015,0.449219 0.11591,0.3049 0.11007,0.630849 -0.0156,0.855469 -0.33312,0.59523 -0.0574,1.020175 0.47657,0.734375 0.39781,-0.21284 0.43453,-0.191514 0.33593,0.185546 -0.0665,0.254375 0.003,0.465051 0.17578,0.53125 0.15757,0.06046 0.28516,0.257161 0.28516,0.4375 0,0.180381 0.0936,0.271172 0.20703,0.201172 0.0813,-0.05025 0.15581,-0.06725 0.18945,-0.05469 10e-4,4.86e-4 0.003,0.0014 0.004,0.002 4.7e-4,3.5e-4 0.005,0.0031 0.006,0.0039 0.002,0.0041 0.005,0.01339 0.006,0.01953 0,0.05411 0.0628,0.259432 0.13867,0.457032 0.11424,0.2977 0.0519,0.338815 -0.36133,0.234375 -0.20101,-0.05079 -0.32052,-0.07874 -0.35937,-0.07227 h -0.002 l -0.002,0.002 -0.002,0.002 h -0.002 l -0.002,0.002 v 0.002 0.002 h -0.002 v 0.002 0.002 0.002 0.002 h 0.002 v 0.002 h 0.002 v 0.002 c 0.0198,0.03366 0.11119,0.105298 0.26562,0.220704 0.2982,0.22292 0.46381,0.23843 0.67578,0.0625 0.57894,-0.48045 1.09998,0.729669 0.63477,1.474609 -0.21127,0.3383 -0.19188,0.450464 0.12695,0.683594 0.62972,0.46047 0.5617,1.933765 -0.11523,2.484375 -0.2989,0.24312 -0.57935,0.626725 -0.62305,0.853515 -0.06,0.31102 -0.21656,0.398216 -0.63867,0.353516 -0.59838,-0.06347 -0.71339,0.132323 -0.3125,0.533203 0.0962,0.09621 0.14353,0.159463 0.14062,0.197266 -1.8e-4,0.0011 -0.002,0.0059 -0.002,0.0078 v 0.002 c -4.8e-4,9.99e-4 -0.003,0.0049 -0.004,0.0059 -6.7e-4,9.11e-4 -0.003,0.005 -0.004,0.0059 -0.0209,0.01982 -0.0727,0.0293 -0.15039,0.0293 -0.14654,0 -0.5027,0.185319 -0.79102,0.412109 -0.28833,0.22679 -0.69258,0.41211 -0.89844,0.41211 -0.20587,0 -0.45828,0.153702 -0.5625,0.339843 -0.12855,0.230026 -0.36317,0.304575 -0.73047,0.234375 -0.58627,-0.112079 -0.82067,0.07712 -1.06054,0.857422 -0.27474,0.89369 -1.27577,1.80033 -1.69727,1.53711 -0.26774,-0.16718 -0.91008,-0.154838 -2.42578,0.04492 -1.13373,0.14941 -2.1318,0.273343 -2.2168,0.277343 -0.085,0.0041 -0.15429,0.183938 -0.15429,0.398438 0,0.51218 -0.71522,0.681769 -2.16211,0.511719 -0.8649,-0.10165 -1.22967,-0.06016 -1.5,0.171875 -0.49963,0.4289 -1.04321,0.594798 -1.1875,0.361328 -0.31623,-0.51168 -0.97602,-0.206366 -0.85547,0.396484 0.12838,0.64184 -0.50745,1.511408 -0.78125,1.068359 -0.15596,-0.252323 -0.671804,-0.278865 -0.800782,-0.115234 -1.061625,-0.682644 -2.05056,-1.493819 -2.9375,-2.435547 0.07604,-0.01748 0.121523,-0.04579 0.121094,-0.08398 -0.008,-0.46188 -0.27801,-1.089844 -0.46875,-1.089844 -0.32272,0 -0.972656,-0.640174 -0.972656,-0.958984 0,-0.40249 0.483433,-0.340985 1.095703,0.140625 0.51925,0.4085 0.538437,0.410007 0.742187,0.0293 0.25864,-0.48327 -0.479293,-1.273438 -1.189453,-1.273438 -0.4815,0 -1.679687,-0.771511 -1.679687,-1.082031 0,-0.09939 -0.277008,-0.414922 -0.617188,-0.701172 -0.190473,-0.160272 -0.36287,-0.361253 -0.476562,-0.546875 -0.04774,-0.115098 -0.09415,-0.231863 -0.140625,-0.347656 -0.0013,-0.01189 -0.002,-0.02221 -0.002,-0.0332 1e-6,-0.22416 -0.11012,-0.611685 -0.24414,-0.859375 -0.13401,-0.24769 -0.268628,-0.672093 -0.298828,-0.945313 -0.03027,-0.27319 -0.136158,-0.552232 -0.236328,-0.619141 -0.29958,-0.20029 -1.487832,-4.273149 -1.582032,-5.421875 -0.0251,-0.306358 -0.164828,-0.699425 -0.310547,-0.875 -0.126197,-0.152065 -0.176862,-0.247375 -0.162109,-0.287109 l 0.002,-0.002 c 5.3e-4,-8.57e-4 0.0033,-0.0051 0.0039,-0.0059 l 0.002,-0.002 0.002,-0.002 0.002,-0.002 c 0.07489,-0.04203 0.409488,0.134871 0.898437,0.507813 0.78507,0.59879 1.253022,0.21335 0.607422,-0.5 -0.18404,-0.20343 -0.275425,-0.4277 -0.203125,-0.5 0.07231,-0.07229 -0.01939,-0.365048 -0.205078,-0.648438 -0.18568,-0.2834 -0.522157,-1.007608 -0.748047,-1.611328 -0.22588,-0.60373 -0.782058,-1.670041 -1.236328,-2.369141 -0.45425,-0.699109 -0.826172,-1.409855 -0.826172,-1.578125 0,-0.168277 -0.0957,-0.364346 -0.210937,-0.435546 -0.1152,-0.07121 -0.152285,-0.21953 -0.08398,-0.330079 0.0683,-0.110516 0.01621,-0.329921 -0.115234,-0.488281 -0.13134,-0.15836 -0.217006,-0.456909 -0.191406,-0.662109 0.02571,-0.20521 -0.01288,-0.511541 -0.08398,-0.681641 -0.66999,-1.6028 -0.47822,-6.390625 0.25586,-6.390625 0.08675,0 0.334481,-0.348197 0.550781,-0.773437 0.2163,-0.42523 0.481461,-0.83551 0.587891,-0.91211 0.1192,-0.08577 0.101125,-0.54045 -0.04687,-1.18164 -0.13217,-0.57285 -0.187294,-1.182829 -0.121094,-1.355469 0.06618,-0.17263 0.02831,-0.314453 -0.08398,-0.314453 -0.34212,0 -0.41827,-0.729562 -0.11914,-1.138672 0.15486,-0.21188 0.230119,-0.550133 0.166015,-0.751953 -0.06754,-0.21276 0.05215,-0.548728 0.285157,-0.798828 0.34627,-0.37167 0.679181,-1.252419 0.738281,-1.949219 0.0096,-0.11338 -0.120916,-0.205078 -0.291016,-0.205078 -0.22166,0 -0.326593,-0.27186 -0.371093,-0.958985 -0.05415,-0.8374 -0.141797,-0.997481 -0.691407,-1.263671 -0.3742,-0.18124 -0.537543,-0.361713 -0.402343,-0.445313 0.36255,-0.22406 0.263705,-0.529297 -0.171875,-0.529297 -0.48058,0 -0.512068,-0.737817 -0.05469,-1.279297 0.16404,-0.19422 0.245441,-0.49023 0.181641,-0.65625 -0.06372,-0.16602 0.01331,-0.407129 0.169922,-0.537109 0.15657,-0.12998 0.23814,-0.356736 0.18164,-0.503906 -0.05647,-0.14718 0.04214,-0.322825 0.21875,-0.390625 0.17661,-0.06775 0.320313,-0.255033 0.320313,-0.414063 0,-0.15904 0.320427,-0.50782 0.710937,-0.77539 0.39051,-0.26757 0.752188,-0.649 0.804688,-0.84961 0.05246,-0.20062 0.243128,-0.365234 0.423828,-0.365234 0.18073,0 0.330078,-0.08691 0.330078,-0.19336 0,-0.382434 1.812275,-0.498251 2.171875,-0.138671 0.18235,0.18235 0.409206,0.332031 0.503906,0.332031 0.0947,0 0.124415,0.180684 0.06641,0.402344 -0.08195,0.31338 0.02471,0.430796 0.482422,0.529296 0.32373,0.0697 0.796982,0.211884 1.050782,0.314454 0.25382,0.1025 0.601997,0.132306 0.773437,0.06641 0.17143,-0.06571 0.310547,-0.03961 0.310547,0.05859 0,0.30791 -0.905515,0.774996 -1.390625,0.716796 -0.29859,-0.03582 -0.464844,0.05402 -0.464844,0.251954 0,0.21401 0.203492,0.300756 0.669922,0.285156 1.08166,-0.03609 1.573736,0.206859 1.441406,0.71289 -0.1271,0.486015 1.108013,0.422945 1.414063,-0.07226 0.07924,-0.12913 0.277456,-0.182041 0.441406,-0.119141 0.16396,0.06293 0.689537,-0.06011 1.16602,-0.273437 0.47648,-0.21331 1.08037,-0.416172 1.3418,-0.451172 0.68147,-0.09127 1.25637,-0.711281 0.9746,-1.050781 -0.2115,-0.25485 0.2884,-0.563567 1.66993,-1.029297 0.22541,-0.07559 0.31152,-0.243289 0.23242,-0.449219 -0.36335,-0.94689 1.18138,-2.554337 1.67969,-1.748047 0.18539,0.30003 0.7207,0.251857 0.7207,-0.06445 0,-0.71789 0.55282,-1.089504 1.00781,-0.677734 0.29648,0.2683 0.50786,0.324243 0.68945,0.183593 0.54364,-0.42123 0.96999,-0.439036 1.45118,-0.06055 0.59083,0.46475 2.88193,0.371866 2.69726,-0.109375 -0.13474,-0.351127 0.0911,-0.464933 1.17578,-0.589843 z m 324.30469,0.498047 c -0.29032,-0.0081 -0.56315,0.06537 -0.625,0.226562 -0.0625,0.16299 -0.3175,0.226563 -0.92188,0.226563 -0.60437,0 -0.86133,0.06165 -0.92383,0.224609 -0.0566,0.14739 -0.29023,0.22461 -0.67578,0.22461 -0.38555,0 -0.61918,0.07921 -0.67578,0.226562 -0.0476,0.12397 -0.22129,0.224609 -0.38672,0.224609 -1.1751,0 -2.26432,2.169368 -1.4707,2.929688 0.37068,0.35516 0.45117,0.552708 0.45117,1.111328 0,0.58066 0.081,0.76292 0.55664,1.25 0.6734,0.68963 0.98263,0.711978 1.53125,0.111328 l 0.41797,-0.458984 2.08594,0.02344 c 2.29869,0.02605 2.49464,-0.05478 1.71484,-0.710937 -0.42434,-0.35706 -0.45238,-0.423528 -0.23828,-0.580078 0.13313,-0.09735 0.24219,-0.318275 0.24219,-0.490235 0,-0.57441 0.3096,-0.513919 0.92187,0.181641 0.57889,0.65758 0.64239,0.689453 1.41016,0.689453 0.8771,0 1.16237,0.204768 0.72656,0.523438 -0.15272,0.11171 -0.22289,0.259525 -0.15429,0.328125 0.0686,0.06861 0.2127,0.0078 0.31835,-0.136719 0.19124,-0.26152 0.69334,-0.35354 0.88477,-0.16211 0.0553,0.05528 -0.0136,0.225617 -0.15234,0.378907 -0.43099,0.47624 -0.008,0.709671 0.54492,0.300781 0.24515,-0.18125 0.6436,-0.330078 0.88476,-0.330078 0.24117,0 0.52212,-0.10065 0.625,-0.22461 0.10288,-0.123969 0.30614,-0.226562 0.45118,-0.226562 0.14505,0 0.34829,-0.100659 0.45117,-0.224609 0.10288,-0.12397 0.35326,-0.226563 0.55664,-0.226563 0.49942,0 0.36778,-0.360075 -0.1543,-0.421875 -0.78037,-0.09238 -0.10918,-0.914828 0.75391,-0.923828 0.54991,-0.0057 0.80765,0.268786 0.44336,0.472656 -0.13557,0.07586 -0.24805,0.200797 -0.24805,0.279297 0,0.22848 0.69711,0.165259 0.90234,-0.08203 0.10289,-0.12396 0.31685,-0.22461 0.47461,-0.22461 0.15776,10e-7 0.32545,0.10065 0.37305,0.22461 0.16784,0.43737 1.40625,0.301573 1.40625,-0.154297 0,-0.2092 -0.10064,-0.419197 -0.22461,-0.466797 -0.12395,-0.04756 -0.22656,-0.250812 -0.22656,-0.451172 0,-0.20036 -0.10064,-0.403572 -0.22461,-0.451172 -0.12396,-0.04757 -0.22656,-0.222502 -0.22656,-0.388672 0,-0.6404 -1.08618,-1.46875 -1.92578,-1.46875 -0.71625,10e-7 -0.76175,-0.02214 -0.80665,-0.412109 l -0.0469,-0.414062 -3.51563,-0.04102 c -3.13129,-0.03596 -3.53905,-0.06916 -3.71093,-0.300781 -0.18135,-0.24437 -0.20726,-0.241315 -0.42774,0.04102 -0.22191,0.2842 -0.24619,0.28575 -0.43945,0.03711 -0.12943,-0.166525 -0.43624,-0.255605 -0.72656,-0.263672 z m -354.785159,0.605469 h 0.002 0.002 0.002 c 0.01212,-5.5e-4 0.02171,0.0041 0.0293,0.01172 0.05093,0.05093 -0.01496,0.22241 -0.146485,0.38086 -0.130809,0.15846 -0.187898,0.422107 -0.125,0.585937 0.06287,0.16381 -0.08108,0.54547 -0.320312,0.84961 -0.50538,0.64249 -0.816406,0.710104 -0.816406,0.177734 0,-0.369656 1.115005,-1.969968 1.373047,-2.005859 z m 382.285159,1.617187 c -0.52716,0.01902 -0.74041,0.575954 -0.11719,1.132813 0.4079,0.36449 0.46326,0.484816 0.31836,0.685546 -0.34331,0.475631 -0.37078,0.6626 -0.12305,0.84375 0.34915,0.2553 0.31533,0.407514 -0.20117,0.902344 l -0.44922,0.431641 v 2.201172 c 0,1.21041 0.0445,2.245681 0.0996,2.300781 0.32743,0.32743 1.09311,-0.798206 1.32422,-1.947266 0.0519,-0.25822 0.25862,-0.626346 0.46094,-0.816406 0.83961,-0.78878 0.41732,-4.779906 -0.58008,-5.478516 -0.27105,-0.189849 -0.52614,-0.263301 -0.73242,-0.255859 z m -40.16602,0.484375 c -0.33725,0 -0.56855,0.08262 -0.62305,0.224609 -0.0622,0.16199 -0.3145,0.22461 -0.90039,0.22461 -0.5859,0 -0.84014,0.06455 -0.90234,0.226562 -0.0476,0.12397 -0.25081,0.22461 -0.45117,0.22461 -0.20036,0 -0.40357,0.102592 -0.45117,0.226562 -0.0476,0.12397 -0.25188,0.22461 -0.45508,0.22461 -1.05001,0 -1.36736,1.023589 -0.4375,1.412109 0.6943,0.2901 0.83984,0.626316 0.83984,1.947266 0,0.75886 0.0607,1.148018 0.1875,1.199218 0.32555,0.13135 0.36399,0.111826 0.98438,-0.490234 0.33394,-0.32408 0.62905,-0.746993 0.65625,-0.939453 0.0772,-0.54528 0.78365,-0.491337 0.84765,0.06445 l 0.0488,0.412109 h 1.79297 1.79297 v -0.378906 c 0,-0.20921 0.10065,-0.419197 0.22461,-0.466797 0.162,-0.06218 0.22656,-0.316444 0.22656,-0.902344 0,-0.585899 -0.0645,-0.840143 -0.22656,-0.902343 -0.12396,-0.04757 -0.22461,-0.222502 -0.22461,-0.388672 0,-0.52738 -1.087,-1.46875 -1.69531,-1.46875 -0.33029,0 -0.55908,-0.08349 -0.61328,-0.22461 -0.0545,-0.14199 -0.28385,-0.224609 -0.6211,-0.224609 z m 36.8711,1.507813 c -0.50156,0.02928 -1.03322,0.383397 -0.80665,0.75 0.0464,0.07511 -0.0539,0.25586 -0.22265,0.40039 -0.20852,0.17853 -0.30664,0.444428 -0.30664,0.830078 v 0.56836 h 0.66015 c 0.44814,0 0.68935,-0.07355 0.74805,-0.226563 0.0476,-0.12397 0.2576,-0.224609 0.4668,-0.224609 0.53124,0 0.56847,-1.35727 0.0527,-1.90625 -0.14191,-0.151056 -0.36381,-0.204714 -0.59179,-0.191406 z m -88.37305,1.070312 -9.10547,7.082031 -0.002,0.002 c -0.0396,0.04143 -0.082,0.07994 -0.12696,0.115235 -0.0469,0.0368 -0.0965,0.07011 -0.14843,0.09961 h -0.002 l -8.92773,6.945313 21.43164,8.679687 z m -192.62891,0.794922 c -1.93079,-0.08554 -3.81495,0.614608 -5.17578,1.931641 2.09439,2.006136 5.22445,2.544749 7.94141,1.326171 0.64723,-0.342966 1.2317,-0.787299 1.74023,-1.304687 -0.71824,-0.673156 -1.5875,-1.219821 -2.57617,-1.599609 -0.63648,-0.209392 -1.28609,-0.325004 -1.92969,-0.353516 z m -44.1914,1.458984 c 0.0651,-0.004 0.13699,-0.0039 0.21679,0 0.0912,0.0045 0.19283,0.0142 0.30274,0.0293 0.90188,0.12388 1.12245,0.392286 0.57226,0.697266 -0.67257,0.37279 -0.8833,0.355109 -1.3125,-0.119141 -0.32751,-0.361888 -0.23507,-0.579668 0.22071,-0.607422 z m -13.41016,0.6875 c 0.0784,-0.0021 0.0918,0.06953 0.0918,0.212891 0,0.1765 0.0936,0.320312 0.20703,0.320312 0.11338,0 0.20703,0.18532 0.20703,0.41211 0,0.22679 0.13555,0.412109 0.30273,0.412109 0.16718,0 0.45097,0.284943 0.63086,0.632813 0.36651,0.70866 0.33429,1.411804 -0.0586,1.277343 -0.14176,-0.04852 -0.25781,-0.180938 -0.25781,-0.292968 0,-0.2327 -0.51755,-0.791016 -0.73243,-0.791016 -0.006,0 -0.0111,2.59e-4 -0.0156,0.002 h -0.002 c -7.9e-4,4.69e-4 -0.005,0.0034 -0.006,0.0039 l -0.002,0.002 -0.002,0.002 v 0.002 l -0.002,0.002 -0.002,0.002 c -0.0176,0.04475 0.0389,0.164141 0.15235,0.300781 0.36912,0.44477 -0.0136,0.770707 -0.70313,0.597657 -1.11841,-0.2807 -1.31394,-2.257841 -0.2832,-2.869141 0.25328,-0.150245 0.39619,-0.226387 0.47461,-0.228516 z m 333.78711,1.121094 c 0.1314,-0.0033 0.24966,0.182125 0.29883,0.609375 0.0603,0.52418 0.47851,0.558063 0.47851,0.03906 0,-0.26908 0.10071,-0.396991 0.36328,-0.462891 0.72315,-0.1815 0.91211,-0.04101 0.91211,0.675781 0,0.71061 -0.27888,0.993391 -0.42578,0.431641 -0.0731,-0.27953 -0.12354,-0.306315 -0.28125,-0.146485 -0.15701,0.15918 -0.14206,0.232968 0.082,0.398438 0.38718,0.28593 0.27539,0.889225 -0.17578,0.953125 -0.53699,0.07606 -0.92578,0.559334 -0.92578,1.146484 0,0.28782 -0.0938,0.571872 -0.21094,0.638672 -0.11601,0.06609 -0.23507,0.288371 -0.26367,0.494141 -0.0512,0.36813 -0.32225,0.505875 -0.6914,0.353515 -0.27298,-0.11268 -0.24026,-1.201393 0.0391,-1.308593 0.12397,-0.04756 0.22461,-0.156888 0.22461,-0.242188 0,-0.08527 -0.10064,-0.154297 -0.22461,-0.154297 -0.12397,0 -0.22656,0.107442 -0.22656,0.238282 0,0.39729 -0.37078,0.143097 -0.42188,-0.289063 -0.0407,-0.34395 0.018,-0.416441 0.40625,-0.494141 l 0.45508,-0.0918 0.043,-1.296875 c 0.0294,-0.884505 0.31068,-1.486376 0.54492,-1.492188 z m -324.1836,2.632813 c 0.005,-3e-4 0.009,-3.06e-4 0.0137,0 0.13031,0.0081 0.45917,0.150146 0.99023,0.425781 0.2835,0.14712 0.63171,0.268921 0.77344,0.269531 0.14175,7.1e-4 0.25781,0.09364 0.25781,0.207031 0,0.43565 -1.05386,0.178438 -1.69726,-0.414062 -0.26832,-0.24711 -0.39863,-0.403272 -0.38868,-0.462891 v -0.002 l 0.002,-0.002 0.002,-0.002 c 6.2e-4,-9.05e-4 0.003,-0.005 0.004,-0.0059 l 0.002,-0.002 c 9.5e-4,-6.82e-4 0.005,-0.0033 0.006,-0.0039 0.008,-0.0036 0.0212,-0.0069 0.0352,-0.0078 z m 328.86133,2.146484 c -0.63166,0 -0.86275,0.2308 -0.6875,0.6875 0.0697,0.18159 0.20649,0.213012 0.58008,0.132812 0.99916,-0.2143 1.07835,-0.820312 0.10742,-0.820312 z m -3.89648,1.261719 c 0.0761,-0.0011 0.15309,0.0092 0.2207,0.03516 0.12397,0.04757 0.22461,0.237875 0.22461,0.421875 0,0.05157 0.002,0.09819 0.006,0.140625 -0.14912,0.158125 -0.28577,0.322939 -0.41016,0.496094 -0.0297,-0.07262 -0.0469,-0.137095 -0.0469,-0.189453 0,-0.1823 -0.10065,-0.370369 -0.22461,-0.417969 -0.12396,-0.04758 -0.22656,-0.150163 -0.22656,-0.226563 0,-0.145425 0.22882,-0.256411 0.45703,-0.259765 z m -21.97656,0.142578 c -0.1754,0.0067 -0.26758,0.24465 -0.26758,0.707031 v 0.591797 h -1.25781 c -0.93564,0 -1.30629,0.05904 -1.44532,0.226562 -0.10288,0.12397 -0.40214,0.22461 -0.66406,0.22461 -0.36593,0 -0.6307,0.156221 -1.14062,0.675781 -0.62085,0.63258 -0.71508,0.677734 -1.45899,0.677734 -0.75845,0 -1.05722,0.208905 -0.56836,0.396485 0.36781,0.14114 0.25647,0.716907 -0.22656,1.179687 -0.24793,0.23752 -0.44922,0.543375 -0.44922,0.677735 0,0.13436 -0.20324,0.438251 -0.45117,0.675781 -0.34654,0.33201 -0.45117,0.563466 -0.45117,1.003906 0,0.57139 -0.23242,0.775216 -0.39649,0.347656 -0.24172,-0.62989 -0.94417,0.192522 -0.95117,1.113282 -0.005,0.6019 0.0676,0.733643 0.79883,1.464843 0.83757,0.83757 1.13707,0.956585 1.45117,0.578125 0.10288,-0.123969 0.30416,-0.226562 0.44922,-0.226562 0.14504,0 0.34829,-0.100659 0.45117,-0.224609 0.2837,-0.3418 2.07684,-0.313621 2.34961,0.03711 0.19476,0.25044 0.21317,0.25044 0.36328,0 0.12996,-0.21686 0.3764,-0.261719 1.41016,-0.261719 0.97576,0 1.27449,-0.05113 1.3418,-0.226562 0.0707,-0.18429 0.4397,-0.22461 2.02734,-0.22461 1.56107,0 1.95789,-0.04298 2.02539,-0.21875 0.0605,-0.15761 0.39112,-0.231772 1.18164,-0.263672 l 1.0957,-0.04492 v -0.775391 c 0,-0.8851 0.15966,-1.150633 0.45118,-0.751953 0.33583,0.45927 0.89241,0.271517 0.94921,-0.320313 0.0664,-0.69066 -0.89631,-1.680453 -1.64453,-1.689453 -0.3728,-0.0047 -0.60344,-0.123752 -0.875,-0.451172 -0.39733,-0.47904 -1.00989,-0.59506 -1.15429,-0.21875 -0.0476,0.12396 -0.24076,0.226563 -0.42969,0.226563 -0.18892,0 -0.38404,-0.102603 -0.43164,-0.226563 -0.0476,-0.12397 -0.22936,-0.224609 -0.40625,-0.224609 -0.7979,0 -1.03606,-0.53534 -1.03906,-2.34375 -0.002,-1.45626 -0.0387,-1.699598 -0.29297,-1.929688 -0.13708,-0.124052 -0.25188,-0.18514 -0.34375,-0.18164 z m -313.50586,0.253906 c 0.12612,-0.0022 0.18164,0.09212 0.18164,0.287109 0,0.18321 0.12128,0.256747 0.30664,0.185547 0.19898,-0.07634 0.37485,0.0622 0.50195,0.396485 0.10764,0.28313 0.31038,0.553409 0.44922,0.599609 0.1682,0.0561 0.1895,0.19113 0.0644,0.40625 -0.1872,0.32209 -1.11523,0.119068 -1.11523,-0.244141 0,-0.08062 -0.25021,-0.396695 -0.55664,-0.703125 -0.46048,-0.460489 -0.50529,-0.591486 -0.25781,-0.748046 0.18759,-0.118646 0.32768,-0.177988 0.42578,-0.179688 z m 57.75586,0.498047 c -1.70716,0.06622 -3.31636,0.723907 -4.50196,1.898437 1.81294,1.820405 4.60431,2.515178 7.19141,1.664063 0.99832,-0.383496 1.87539,-0.93662 2.59766,-1.619141 -0.71983,-0.685315 -1.58964,-1.221934 -2.57032,-1.548828 -0.65547,-0.218489 -1.32194,-0.346946 -1.98047,-0.386719 -0.24694,-0.01491 -0.49244,-0.01727 -0.73632,-0.0078 z m -80.88672,2.222656 c -0.21765,-0.0079 -0.52268,0.111036 -0.869143,0.367188 -0.45118,0.33354 -0.870753,0.462675 -1.376953,0.421875 -1.98227,-0.16 -6.0511,0.0938 -6.63086,0.414062 -0.26865,0.14836 -0.604353,0.245497 -0.746093,0.216797 -0.14175,-0.02878 -0.257813,0.141533 -0.257813,0.376953 0,0.25098 -0.184807,0.49655 -0.447266,0.59375 -0.321069,0.11878 -0.375513,0.211182 -0.189453,0.326172 0.14265,0.08815 0.357763,0.06218 0.476563,-0.05664 0.15055,-0.150547 0.360519,-0.120423 0.693359,0.09766 0.28848,0.18891 0.651932,0.256875 0.919922,0.171875 0.58401,-0.18453 1.753927,-0.179725 2.060547,0.0098 0.147,0.09087 -0.333041,0.42467 -1.212891,0.84375 -2.20424,1.04992 -3.491296,2.854352 -2.285156,3.201172 v -0.002 c 1.05613,0.30369 2.044922,-0.171762 2.044922,-0.982422 0,-0.26961 0.09363,-0.490234 0.207031,-0.490234 0.11336,0 0.20704,0.09825 0.207031,0.216797 10e-7,1.48976 2.915587,1.429587 3.128907,-0.06445 0.08277,-0.57963 0.787109,-0.761345 0.787109,-0.203125 0,0.64234 1.006041,1.469128 1.306641,1.074218 0.13261,-0.17421 0.394171,-0.284793 0.582031,-0.246093 0.18786,0.03876 0.402562,-0.02681 0.476562,-0.146485 0.07396,-0.11968 0.303619,-0.21875 0.511719,-0.21875 0.247734,0 0.386344,-0.15917 0.402344,-0.46289 0.0134,-0.25514 0.0534,-1.08786 0.0879,-1.84961 0.0435,-0.96147 0.17345,-1.506543 0.42383,-1.783203 0.25508,-0.28187 0.29017,-0.441732 0.12305,-0.544922 -0.13455,-0.08312 -0.18243,-0.359458 -0.11133,-0.642578 0.10236,-0.407812 -0.0327,-0.62857 -0.3125,-0.638672 z m 333.50976,4.636719 c 0.70836,0 0.85373,0.501751 0.30469,1.050781 -0.41853,0.41859 -1.20903,0.395915 -1.625,-0.04687 -0.43105,-0.4588 -0.41309,-0.554687 0.10742,-0.554687 0.2478,0 0.47219,-0.09612 0.52149,-0.22461 0.0571,-0.14869 0.29156,-0.224609 0.6914,-0.224609 z m -4.20312,0.449219 c 0.28723,0 0.75195,0.603162 0.75195,0.976562 0,0.4675 -0.15417,0.476421 -0.57422,0.0293 -0.3336,-0.35508 -0.44896,-1.005859 -0.17773,-1.005859 z m -331.501955,2.177734 c -0.208056,0.0016 -0.718733,0.26684 -1.572266,0.798828 -0.84255,0.52515 -1.822854,1.012985 -2.177734,1.083985 -0.35487,0.07098 -0.694859,0.209793 -0.755859,0.308593 -0.06104,0.09875 0.212485,0.179688 0.609375,0.179688 0.39688,0 0.782828,-0.09993 0.857421,-0.220703 0.07464,-0.12074 0.400577,-0.192003 0.722657,-0.158203 0.65334,0.06853 1.63929,-0.557036 2.18164,-1.384766 0.264868,-0.404241 0.318345,-0.608866 0.134766,-0.607422 z m 83.400395,0.646484 c -1.78047,0.0097 -3.50331,0.711769 -4.8125,2.007813 1.80684,1.784048 4.59264,2.370813 7.21093,1.498047 0.95731,-0.319101 1.80796,-0.841582 2.51758,-1.5 -0.50533,-0.492379 -1.08447,-0.916476 -1.72656,-1.253906 -1.03183,-0.513691 -2.12118,-0.757743 -3.18945,-0.751954 z m 254.09179,1.234375 c -0.38555,0 -0.61918,0.07724 -0.67578,0.22461 -0.0541,0.14099 -0.28414,0.224609 -0.61328,0.224609 -0.34097,0 -0.65022,0.118831 -0.87891,0.337891 l -0.35351,0.339844 0.55859,0.55664 c 0.54534,0.54668 0.582,0.559453 1.71485,0.564453 l 1.15625,0.0059 0.75781,-0.759766 c 0.95432,-0.95428 0.94847,-1.044922 -0.0723,-1.044922 -0.60019,0 -0.85547,-0.06185 -0.91797,-0.224609 -0.0566,-0.14739 -0.29023,-0.22461 -0.67578,-0.22461 z m -53.19922,4.166016 c -0.0879,-0.003 -0.17607,-0.002 -0.26367,0.002 -0.52573,0.02543 -1.03328,0.187177 -1.42187,0.498047 -0.0136,0.0037 -0.0273,0.0077 -0.041,0.01172 -10e-4,0.0072 -0.003,0.01448 -0.004,0.02148 -1.21093,0.88068 -1.32181,2.461812 -0.375,3.763672 0.87431,1.20216 2.43797,1.309506 3.73437,0.384766 1.06311,-0.87002 1.30165,-2.492791 0.41211,-3.744141 -0.42188,-0.51173 -1.08429,-0.831914 -1.77734,-0.916016 -0.088,-0.0107 -0.17578,-0.01848 -0.26368,-0.02148 z m -253.04492,5.322266 c -0.11153,0.273303 -0.23983,0.540347 -0.34961,0.814453 0.0463,-0.348024 0.15253,-0.615427 0.34961,-0.814453 z m -33.675779,1.722656 c -0.17009,0 -0.310547,0.09364 -0.310547,0.207031 0,0.11338 -0.138504,0.205078 -0.308594,0.205078 -0.15945,0 -0.29268,0.03472 -0.308594,0.07813 v 0.002 0.002 0.002 0.002 c 0,0.04742 -0.0561,0.232739 -0.125,0.412109 -0.0897,0.23372 -0.0028,0.326172 0.308594,0.326172 0.25264,0 0.433594,-0.130833 0.433594,-0.314453 0,-0.17365 0.140457,-0.370247 0.310547,-0.435547 0.17009,-0.06526 0.308593,-0.201514 0.308593,-0.302734 0,-0.10132 -0.138503,-0.183594 -0.308593,-0.183594 z m 14.818359,1.560547 c -0.37608,0.0037 -0.90234,0.324932 -0.90234,0.623047 0,0.27989 -0.0549,0.294544 -0.3086,0.08398 -0.1701,-0.14116 -0.31054,-0.377072 -0.31054,-0.525391 0,-0.38171 -1.16507,-0.02502 -1.76758,0.541016 -0.33997,0.31934 -0.59394,0.394703 -0.94532,0.283203 -0.72863,-0.23127 -1.52067,-0.156163 -2.30664,0.216797 -0.57593,0.2733 -0.91803,0.297696 -1.81445,0.134766 -0.85625,-0.15562 -1.2881,-0.131975 -1.92773,0.103515 -0.45359,0.167 -0.964659,0.324863 -1.134769,0.351563 -1.35547,0.21282 -2.065462,0.631495 -2.257812,1.328125 -0.31772,1.15065 0.369525,1.95894 1.009765,1.1875 0.40437,-0.48723 1.428253,-0.615502 1.851563,-0.232422 0.291563,0.26386 0.487873,0.290287 0.927733,0.123047 0.30673,-0.11654 0.78021,-0.212891 1.05274,-0.212891 0.31174,0 0.46053,-0.09569 0.39843,-0.257812 -0.0725,-0.18895 0.2989,-0.271294 1.39649,-0.308594 2.97892,-0.10097 3.33055,-0.06384 3.76562,0.390625 0.17477,0.182572 0.25303,0.29597 0.23438,0.337891 -5.7e-4,9.38e-4 -0.003,0.005 -0.004,0.0059 l -0.002,0.002 c -9.2e-4,6.84e-4 -0.005,0.0033 -0.006,0.0039 -0.0195,0.0088 -0.0584,0.0061 -0.11133,-0.0098 -0.16556,-0.04955 -0.79106,0.02468 -1.39062,0.164062 -0.60067,0.1397 -1.13998,0.173219 -1.20118,0.07422 -0.11645,-0.18843 -1.13778,0.181276 -1.35937,0.492187 -0.0708,0.09932 -0.37448,0.01969 -0.67578,-0.177734 -0.57754,-0.37841 -0.8378,-0.293789 -0.8418,0.275391 -0.002,0.21393 -0.23609,0.393862 -0.62109,0.476562 -0.22658,0.04861 -0.37672,0.09858 -0.40821,0.128906 l -0.002,0.002 -0.002,0.002 v 0.002 0.002 0.002 0.002 l 0.002,0.002 0.002,0.002 c 7.8e-4,4.69e-4 0.005,0.0035 0.006,0.0039 0.008,0.0034 0.0233,0.0061 0.041,0.0078 0.32701,0.03096 0.33968,0.581463 0.0156,0.689453 -0.46518,0.15504 0.011,0.786016 0.59766,0.791016 0.31464,0.0027 0.85121,0.01248 1.19141,0.02148 0.34018,0.0093 1.23556,-0.03817 1.99023,-0.105468 1.13316,-0.10104 1.39342,-0.06457 1.49609,0.203125 0.0684,0.17833 0.25239,0.274643 0.40821,0.214843 0.8212,-0.31513 3.11969,0.864693 2.63281,1.351563 -0.13152,0.13155 -0.24023,0.313597 -0.24023,0.404297 0,0.21409 0.23731,0.204732 0.59765,-0.02344 0.16179,-0.1025 0.24049,-0.36126 0.17969,-0.59375 -0.0845,-0.32299 0.0148,-0.43699 0.45703,-0.52539 0.31074,-0.06214 0.86024,-0.363009 1.22266,-0.667969 l 0.66015,-0.554688 -0.5664,-0.589843 c -0.25962,-0.270951 -0.41839,-0.508639 -0.40235,-0.580079 v -0.002 l 0.002,-0.002 c 7.5e-4,-9.17e-4 0.005,-0.0051 0.006,-0.0059 0.004,-0.0025 0.0115,-0.0064 0.0176,-0.0078 h 0.002 0.002 c 0.0116,-3.93e-4 0.0223,-0.0024 0.0293,-0.0059 l 0.002,-0.002 h 0.002 0.002 v -0.002 h 0.002 c 6.3e-4,-7.3e-4 0.003,-0.0051 0.004,-0.0059 v -0.002 c 3.6e-4,-8.96e-4 0.002,-0.0049 0.002,-0.0059 l 0.002,-0.002 v -0.002 -0.002 c 3.4e-4,-0.0509 -0.091,-0.158519 -0.24805,-0.277343 -0.4429,-0.33507 -0.44478,-0.332375 0.34571,-0.671875 0.40424,-0.1736 0.5664,-0.391089 0.5664,-0.761719 0,-0.60081 -0.0412,-0.584781 0.77344,-0.300781 0.34574,0.12052 0.67828,0.407192 0.73828,0.636718 0.22151,0.846943 0.85924,0.364264 0.86524,-0.654296 0.008,-1.24642 -0.0458,-1.366777 -0.81446,-1.841797 -0.36588,-0.22613 -0.936,-0.663283 -1.26757,-0.970703 -0.3316,-0.30742 -0.74393,-0.569232 -0.91602,-0.582032 -0.1721,-0.01273 -0.40422,-0.07618 -0.51562,-0.142578 -0.0625,-0.03723 -0.14173,-0.05359 -0.22852,-0.05273 z m 3.73047,5.367187 c -0.1495,0.0025 -0.33978,0.08528 -0.53125,0.263672 -0.25764,0.24003 -0.72807,0.4375 -1.04688,0.4375 -0.31879,0 -0.58007,0.09169 -0.58007,0.205078 0,0.21306 0.25907,0.279512 0.85742,0.220703 0.18839,-0.01848 0.40316,0.06282 0.47656,0.181641 0.19684,0.3185 0.99073,0.09674 0.95703,-0.267578 -0.007,-0.07117 0.0447,-0.276158 0.11328,-0.455078 0.14222,-0.3706 0.003,-0.590089 -0.24609,-0.585938 z"
         transform="translate(149.27,236.8)" /><path
         id="path6-0"
         d="M 0,0 C -7.34,0 -13.71,-1.61 -19.110001,-4.86 -24.51,-8.1 -28.68,-12.47 -31.639999,-17.959999 -34.59,-23.440001 -36.07,-29.52 -36.07,-36.189999 c 0,-6.909999 1.540001,-13.069999 4.619999,-18.470001 3.08,-5.400001 7.240002,-9.66 12.470001,-12.789997 5.24,-3.120003 11.14,-4.68 17.72,-4.690002 5.48,0.01 10.33,0.879997 14.55,2.599998 4.22,1.739998 7.79,4.160004 10.7,7.280003 2.91,3.129997 5.120001,6.739998 6.639999,10.819999 1.520003,4.099999 2.280001,8.55 2.280001,13.349999 0,1.36 -0.06,2.689998 -0.189999,3.990002 -0.120003,1.319999 -0.36,2.429998 -0.700001,3.349998 h -51.76 v -13.919998 h 41 L 12.28,-38.09 c 0.84,-3.619999 0.8,-6.84 -0.13,-9.669998 -0.92,-2.820004 -2.55,-5.060002 -4.87,-6.710003 -2.32,-1.64 -5.16,-2.469998 -8.54,-2.48 -3.29,0.01 -6.12,0.810002 -8.48,2.41 -2.36,1.610001 -4.14,3.970001 -5.32,7.09 -1.18,3.130001 -1.640001,6.920002 -1.390001,11.380001 -0.34,3.89 0.130001,7.31 1.390001,10.260001 1.27,2.959999 3.21,5.26 5.83,6.899999 2.62,1.65 5.78,2.469999 9.49,2.459999 3.38,0.01 6.27,-0.66 8.67,-2.019998 2.4,-1.34 4.28,-3.200001 5.63,-5.570002 L 29.74,-16.83 c -1.34,3.38 -3.47,6.34 -6.379999,8.87 C 20.450001,-5.42 17.01,-3.46 13.04,-2.08 9.08,-0.69 4.73,0 0,0 Z"
         style="fill:#000000;fill-opacity:1;fill-rule:nonzero;stroke:none"
         transform="translate(776.65001,237.81999)"
         clip-path="url(#clipPath7-6)" /><path
         id="path8-5"
         clip-path="url(#clipPath9-82)"
         style="fill:#000000;fill-opacity:1;fill-rule:nonzero;stroke:none"
         d="M -1.08125e-4,-94.280469 V 7.8125e-4 H 19.619033 V -34.169141 H 33.533095 L 52.650283,7.8125e-4 H 74.669814 L 53.150283,-37.579297 c 4.979999,-2.269996 8.950385,-5.661645 11.90039,-10.181641 2.959999,-4.510002 4.429688,-9.978435 4.429688,-16.398437 0,-6.569999 -1.430779,-12.09031 -4.300782,-16.570313 -2.869999,-4.469993 -6.819842,-7.85086 -11.839843,-10.130859 -5.02,-2.269996 -10.769532,-3.409922 -17.269532,-3.419922 z M 9.7303606,-78.159375 a 1.2,1.2 0 0 1 1.1992184,1.199219 v 9.162109 l 6.083985,4.601563 a 1.20012,1.20012 0 0 1 0,1.914062 l -6.554688,4.955078 -5.1699216,4.00586 5.1640626,4.001953 6.546875,4.791015 a 1.20012,1.20012 0 0 1 0.01367,1.925782 l -6.554688,4.955078 -5.1699216,4.007812 5.1757816,4.011719 a 1.20012,1.20012 0 0 1 0.464843,0.947266 v 9.759765 a 1.2,1.2 0 0 1 -1.1992184,1.201172 1.2,1.2 0 0 1 -1.1992187,-1.201172 v -9.169922 L 2.595595,-31.692578 a 1.20012,1.20012 0 0 1 0,-1.896485 l 6.4003906,-4.958984 a 1.20012,1.20012 0 0 1 0.00977,-0.0098 l 5.2734374,-3.986328 -5.2578124,-3.847656 a 1.20012,1.20012 0 0 1 -0.025391,-0.01953 L 2.595595,-51.372266 a 1.20012,1.20012 0 0 1 0,-1.896484 l 6.4003906,-4.958984 a 1.20012,1.20012 0 0 1 0.00977,-0.0098 l 5.2949214,-4.001953 -5.2949214,-4.003906 a 1.20012,1.20012 0 0 1 -0.4746094,-0.957032 v -9.759765 a 1.2,1.2 0 0 1 1.1992187,-1.199219 z m 9.8886724,0.958984 h 16.580078 c 2.779999,0.01 5.190936,0.560395 7.210937,1.650391 2.029999,1.100006 3.61,2.620545 4.75,4.560547 1.139999,1.939995 1.699219,4.220085 1.699219,6.830078 0,2.540005 -0.55922,4.768986 -1.699219,6.708984 -1.14,1.950001 -2.720001,3.470546 -4.75,4.560547 -2.020001,1.099998 -4.430938,1.650625 -7.210937,1.640625 H 19.619033 Z"
         transform="translate(844.92003,236.8)" /><path
         id="path170"
         style="fill:#000000;fill-opacity:1;fill-rule:evenodd;stroke:none"
         d="m 702.16992,159.66016 v 11.67968 h 26.88086 v -11.67968 z m 100.80078,0 v 11.67968 h 26.87891 v -11.67968 z" /><path
         id="path4-4"
         d="M 0,0 C -7.34,0 -13.71,-1.61 -19.110001,-4.86 -24.51,-8.1 -28.68,-12.47 -31.639999,-17.959999 -34.59,-23.440001 -36.07,-29.52 -36.07,-36.189999 c 0,-6.909999 1.540001,-13.069999 4.619999,-18.470001 3.08,-5.400001 7.240002,-9.66 12.470001,-12.789997 5.24,-3.120003 11.14,-4.68 17.72,-4.690002 5.48,0.01 10.33,0.879997 14.55,2.599998 4.22,1.739998 7.79,4.160004 10.7,7.280003 2.91,3.129997 5.120001,6.739998 6.639999,10.819999 1.520003,4.099999 2.280001,8.55 2.280001,13.349999 0,1.36 -0.06,2.689998 -0.189999,3.990002 -0.120003,1.319999 -0.36,2.429998 -0.700001,3.349998 h -51.76 v -13.919998 h 41 L 12.28,-38.09 c 0.84,-3.619999 0.8,-6.84 -0.13,-9.669998 -0.92,-2.820004 -2.55,-5.060002 -4.87,-6.710003 -2.32,-1.64 -5.16,-2.469998 -8.54,-2.48 -3.29,0.01 -6.12,0.810002 -8.48,2.41 -2.36,1.610001 -4.14,3.970001 -5.32,7.09 -1.18,3.130001 -1.640001,6.920002 -1.390001,11.380001 -0.34,3.89 0.130001,7.31 1.390001,10.260001 1.27,2.959999 3.21,5.26 5.83,6.899999 2.62,1.65 5.78,2.469999 9.49,2.459999 3.38,0.01 6.27,-0.66 8.67,-2.019998 2.4,-1.34 4.28,-3.200001 5.63,-5.570002 L 29.74,-16.83 c -1.34,3.38 -3.47,6.34 -6.379999,8.87 C 20.450001,-5.42 17.01,-3.46 13.04,-2.08 9.08,-0.69 4.73,0 0,0 Z"
         style="fill:#000000;fill-opacity:1;fill-rule:nonzero;stroke:none"
         clip-path="url(#clipPath5-7)"
         transform="translate(676.65001,237.81999)" /></g></g></svg>
